<?xml version="1.0" encoding="utf-8"?>
<!-- Generator: Adobe Illustrator 16.0.0, SVG Export Plug-In . SVG Version: 6.00 Build 0)  -->
<!DOCTYPE svg PUBLIC "-//W3C//DTD SVG 1.1//EN" "http://www.w3.org/Graphics/SVG/1.1/DTD/svg11.dtd">
<svg version="1.1" xmlns="http://www.w3.org/2000/svg" xmlns:xlink="http://www.w3.org/1999/xlink" x="0px" y="0px"
	 width="1164.841px" height="1060.901px" viewBox="0 0 1164.841 1060.901" enable-background="new 0 0 1164.841 1060.901"
	 xml:space="preserve">
<g id="BACKGROUND_1">
</g>
<g id="BACKGROUND_2">
	<g id="BACKGROUND_x5F_2">
	</g>
</g>
<g id="DESIGN">
</g>
<g id="TYPE">
	<g opacity="0.1">
		<defs>
			<rect id="SVGID_150_" x="227.757" y="1.328" opacity="0.1" width="937.084" height="1059.573"/>
		</defs>
		<clipPath id="SVGID_2_">
			<use xlink:href="#SVGID_150_"  overflow="visible"/>
		</clipPath>
		<g clip-path="url(#SVGID_2_)">
			
				<rect x="43.723" y="763.313" transform="matrix(0.7071 -0.7071 0.7071 0.7071 -258.4006 917.8015)" fill="#B8BABC" width="1869.922" height="15.009"/>
			
				<rect x="23.742" y="743.332" transform="matrix(0.7071 -0.7071 0.7071 0.7071 -250.1239 897.8234)" fill="#B8BABC" width="1869.926" height="15.011"/>
			<polygon fill="#B8BABC" points="1593.467,63.361 271.23,1385.596 281.843,1396.213 1604.084,73.973 			"/>
			
				<rect x="105.997" y="825.586" transform="matrix(0.7071 -0.7071 0.7071 0.7071 -284.1947 980.0768)" fill="#B8BABC" width="1869.926" height="15.011"/>
			<polygon fill="#B8BABC" points="1676.795,146.687 354.554,1468.925 365.169,1479.539 1687.412,157.298 			"/>
			<polygon fill="#B8BABC" points="1655.744,125.633 333.508,1447.87 344.119,1458.485 1666.355,136.251 			"/>
			<polygon fill="#B8BABC" points="1756.549,232.716 434.322,1554.955 444.938,1565.565 1767.17,243.331 			"/>
			<polygon fill="#B8BABC" points="1736.582,212.737 414.344,1534.975 424.959,1545.584 1747.195,223.348 			"/>
			<polygon fill="#B8BABC" points="1715.52,191.692 393.295,1513.92 403.907,1524.535 1726.143,202.296 			"/>
		</g>
		<g clip-path="url(#SVGID_2_)">
			<polygon fill="#B8BABC" points="1823.609,293.505 501.373,1615.737 511.984,1626.352 1834.223,304.113 			"/>
			<polygon fill="#B8BABC" points="1803.633,273.517 481.397,1595.761 492.011,1606.369 1814.246,284.139 			"/>
			
				<rect x="191.805" y="911.391" transform="matrix(0.7071 -0.7071 0.7071 0.7071 -319.7349 1065.8843)" fill="#B8BABC" width="1869.926" height="15.009"/>
			<polygon fill="#B8BABC" points="1885.885,355.776 563.648,1678.01 574.263,1688.626 1896.492,366.396 			"/>
			<polygon fill="#B8BABC" points="1865.908,335.799 543.672,1658.033 554.284,1668.646 1876.529,346.408 			"/>
			<polygon fill="#B8BABC" points="1844.854,314.746 522.617,1636.988 533.234,1647.592 1855.465,325.361 			"/>
			<polygon fill="#B8BABC" points="1945.664,421.829 623.438,1744.055 634.052,1754.675 1956.285,432.439 			"/>
			<polygon fill="#B8BABC" points="1925.693,401.848 603.459,1724.083 614.073,1734.695 1936.312,412.461 			"/>
			<polygon fill="#B8BABC" points="1904.637,380.799 582.409,1703.029 593.02,1713.644 1915.256,391.407 			"/>
		</g>
		<g clip-path="url(#SVGID_2_)">
			<polygon fill="#B8BABC" points="1448.857,-86.852 -7.021,1369.029 3.594,1379.641 1459.475,-76.241 			"/>
			
				<rect x="-323.217" y="618.909" transform="matrix(0.7071 -0.7071 0.7071 0.7071 -236.0874 682.865)" fill="#B8BABC" width="2058.927" height="15.011"/>
			<polygon fill="#B8BABC" points="1407.832,-127.885 -48.049,1327.996 -37.438,1338.613 1418.449,-117.274 			"/>
			
				<rect x="-240.963" y="701.164" transform="matrix(0.7071 -0.7071 0.7071 0.7071 -270.1584 765.119)" fill="#B8BABC" width="2058.93" height="15.012"/>
			<polygon fill="#B8BABC" points="1491.162,-44.559 35.273,1411.326 45.889,1421.937 1501.779,-33.948 			"/>
			<polygon fill="#B8BABC" points="1470.107,-65.613 14.227,1390.27 24.839,1400.887 1480.721,-54.995 			"/>
			<polygon fill="#B8BABC" points="1570.598,41.789 114.725,1497.671 125.342,1508.282 1581.217,52.402 			"/>
			<polygon fill="#B8BABC" points="1550.629,21.809 94.748,1477.69 105.363,1488.301 1561.244,32.419 			"/>
			<polygon fill="#B8BABC" points="1529.566,0.764 73.698,1456.637 84.31,1467.25 1540.191,11.365 			"/>
		</g>
	</g>
</g>
</svg>
