<?xml version="1.0" encoding="utf-8"?>
<!-- Generator: Adobe Illustrator 22.0.1, SVG Export Plug-In . SVG Version: 6.00 Build 0)  -->
<svg version="1.1" xmlns="http://www.w3.org/2000/svg" xmlns:xlink="http://www.w3.org/1999/xlink" x="0px" y="0px"
	 viewBox="0 0 725.5 715.6" style="enable-background:new 0 0 725.5 715.6;" xml:space="preserve">
<style type="text/css">
	.st0{display:none;}
	.st1{display:inline;}
	.st2{fill:#7ECB38;}
	.st3{opacity:0.2;fill:#006838;}
	.st4{clip-path:url(#SVGID_2_);fill:url(#SVGID_3_);}
	.st5{clip-path:url(#SVGID_5_);fill:url(#SVGID_6_);}
	.st6{clip-path:url(#SVGID_8_);fill:url(#SVGID_9_);}
	.st7{fill:#F04D4E;}
	.st8{fill:#C61333;}
	.st9{fill:#E91C24;}
	.st10{fill:#DD1934;}
	.st11{fill:#EB4039;}
	.st12{fill:#231F20;}
	.st13{clip-path:url(#SVGID_11_);fill:url(#SVGID_12_);}
	.st14{clip-path:url(#SVGID_14_);fill:url(#SVGID_15_);}
	.st15{clip-path:url(#SVGID_17_);fill:url(#SVGID_18_);}
	.st16{display:inline;fill:#EB4039;}
	.st17{display:inline;opacity:0.6;fill:#BB1E2D;}
	.st18{display:none;fill:#7ECB38;}
	.st19{display:none;fill:#EB4039;}
	.st20{opacity:0.1;}
	.st21{clip-path:url(#SVGID_20_);}
	.st22{fill:#B8BABC;}
</style>
<g id="图层_1" class="st0">
	<g class="st1">
		<path class="st2" d="M344.7,275.5c0,66.5-53.9,120.4-120.4,120.4C157.9,395.9,104,342,104,275.5c0-66.5,53.9-120.4,120.4-120.4
			C290.8,155.1,344.7,209,344.7,275.5z"/>
		<path class="st3" d="M224.3,156c66.5,0,120.4,53.9,120.4,120.4c0,66.5-53.9,120.4-120.4,120.4"/>
	</g>
	<g class="st1">
		<g>
			<g>
				<g>
					<defs>
						<polygon id="SVGID_1_" points="635.7,530.5 635.7,621.5 635.4,621.5 578.4,530.5 567.8,530.5 567.8,634 577.1,633.9 
							577.1,544.5 577.4,544.5 633.3,634 645.1,634 645.1,530.4 						"/>
					</defs>
					<clipPath id="SVGID_2_">
						<use xlink:href="#SVGID_1_"  style="overflow:visible;"/>
					</clipPath>
					
						<linearGradient id="SVGID_3_" gradientUnits="userSpaceOnUse" x1="-141.0308" y1="1075.255" x2="-140.1183" y2="1075.255" gradientTransform="matrix(0 347.5461 347.5461 0 -373094.2813 49453.6016)">
						<stop  offset="0" style="stop-color:#5BB647"/>
						<stop  offset="0.2278" style="stop-color:#5BB647"/>
						<stop  offset="0.4173" style="stop-color:#5BB647"/>
						<stop  offset="0.6053" style="stop-color:#32B04A"/>
						<stop  offset="0.7774" style="stop-color:#0BA84B"/>
						<stop  offset="0.9943" style="stop-color:#11A24B"/>
						<stop  offset="1" style="stop-color:#11A24B"/>
					</linearGradient>
					<rect x="567.8" y="530.4" class="st4" width="77.3" height="103.6"/>
				</g>
				<g>
					<defs>
						<polygon id="SVGID_4_" points="675.6,530.5 675.6,634 735.3,634 739.3,625.4 684.9,625.4 684.9,584.8 731.2,584.8 
							735.1,576.2 684.9,576.2 684.9,539.1 733.2,539.1 737.1,530.5 						"/>
					</defs>
					<clipPath id="SVGID_5_">
						<use xlink:href="#SVGID_4_"  style="overflow:visible;"/>
					</clipPath>
					
						<linearGradient id="SVGID_6_" gradientUnits="userSpaceOnUse" x1="-141.0304" y1="1075.5457" x2="-140.1185" y2="1075.5457" gradientTransform="matrix(0 347.5461 347.5461 0 -373094.2813 49453.6016)">
						<stop  offset="0" style="stop-color:#5BB647"/>
						<stop  offset="0.2278" style="stop-color:#5BB647"/>
						<stop  offset="0.4173" style="stop-color:#5BB647"/>
						<stop  offset="0.6053" style="stop-color:#32B04A"/>
						<stop  offset="0.7774" style="stop-color:#0BA84B"/>
						<stop  offset="0.9943" style="stop-color:#11A24B"/>
						<stop  offset="1" style="stop-color:#11A24B"/>
					</linearGradient>
					<rect x="675.6" y="530.5" class="st5" width="63.7" height="103.5"/>
				</g>
				<g>
					<defs>
						<path id="SVGID_7_" d="M790.7,623.7c-4.5-2.6-8.3-6-11.2-10.3c-2.9-4.3-5-9.1-6.4-14.6c-1.3-5.4-2-11-2-16.6
							c0-5.6,0.7-11.2,2-16.6c1.3-5.5,3.5-10.3,6.4-14.6c2.9-4.3,6.6-7.7,11.2-10.3c4.5-2.6,10.1-3.9,16.6-3.9
							c6.4,0,11.9,1.3,16.5,3.9c4.6,2.6,8.3,6,11.3,10.3c2.9,4.3,5,9.1,6.4,14.6c1.3,5.4,2,11,2,16.6c0,5.6-0.7,11.2-2,16.6
							c-1.3,5.4-3.5,10.3-6.4,14.6c-2.9,4.3-6.7,7.7-11.3,10.3c-4.6,2.6-10.1,3.9-16.5,3.9C800.7,627.6,795.2,626.3,790.7,623.7
							 M787.4,532.2c-5.7,2.6-10.6,6.2-14.5,11c-3.9,4.7-6.9,10.4-8.9,17.1c-2,6.6-3,14-3,22c0,8,1,15.4,3,22c2,6.6,5,12.3,8.9,17.1
							c3.9,4.7,8.7,8.4,14.5,11c5.7,2.6,12.3,3.9,19.8,3.9c7.5,0,14.1-1.3,19.8-3.9c5.7-2.6,10.6-6.2,14.5-11
							c3.9-4.7,6.9-10.4,8.9-17.1c2-6.6,3-14,3-22c0-8-1-15.4-3-22c-2-6.6-5-12.3-8.9-17.1c-3.9-4.7-8.7-8.4-14.5-11
							c-5.7-2.6-12.3-3.9-19.8-3.9C799.8,528.3,793.2,529.6,787.4,532.2"/>
					</defs>
					<clipPath id="SVGID_8_">
						<use xlink:href="#SVGID_7_"  style="overflow:visible;"/>
					</clipPath>
					
						<linearGradient id="SVGID_9_" gradientUnits="userSpaceOnUse" x1="-141.0311" y1="1075.8329" x2="-140.1181" y2="1075.8329" gradientTransform="matrix(0 347.5461 347.5461 0 -373094.2813 49453.6016)">
						<stop  offset="0" style="stop-color:#5BB647"/>
						<stop  offset="0.2278" style="stop-color:#5BB647"/>
						<stop  offset="0.4173" style="stop-color:#5BB647"/>
						<stop  offset="0.6053" style="stop-color:#32B04A"/>
						<stop  offset="0.7774" style="stop-color:#0BA84B"/>
						<stop  offset="0.9943" style="stop-color:#11A24B"/>
						<stop  offset="1" style="stop-color:#11A24B"/>
					</linearGradient>
					<rect x="761" y="528.3" class="st6" width="92.4" height="107.8"/>
				</g>
				<path class="st7" d="M763.3,500.3"/>
			</g>
			<g>
				<g>
					<g>
						<polygon class="st8" points="886,558.1 913.8,531.6 913.8,563.5 						"/>
						<polygon class="st8" points="976.2,531.6 1005.3,557.8 970,559.6 						"/>
						<polygon class="st9" points="1005.3,557.8 886.1,557.9 944.8,616.4 						"/>
						<polyline class="st10" points="945.2,557.9 944.7,636.2 886,586.9 886,558.1 						"/>
					</g>
					<polygon class="st10" points="976.2,531.6 976.2,558 945.2,557.9 					"/>
					<path class="st11" d="M915.4,530"/>
					<polygon class="st11" points="913.8,531.6 945.2,557.9 886,558.1 					"/>
				</g>
				<polygon class="st11" points="1005.3,557.8 1005.3,587.1 944.7,636.2 944.7,600.4 				"/>
			</g>
		</g>
		<g>
			<path class="st12" d="M595.8,701.8l-2.5-7.3h-16l-2.5,7.3h-11.5l15.4-43.6H592l15.4,43.6H595.8z M580.1,686.4h10.5l-5.3-15.5
				L580.1,686.4z"/>
			<path class="st12" d="M628.3,667.2v5.1c2.2-3.6,5.8-5.5,10.7-5.5c2.6,0,4.9,0.6,7,1.7c2,1.2,3.6,2.8,4.8,5c1.3-2,3-3.6,5.1-4.9
				c2.1-1.2,4.4-1.8,7-1.8c4.3,0,7.7,1.3,10.3,3.9c2.5,2.6,3.8,6.2,3.8,10.8v20.2h-10.8V683c0-2.2-0.6-4-1.8-5.2
				c-1.2-1.2-2.9-1.8-5-1.8c-2.1,0-3.8,0.6-5,1.8c-1.2,1.2-1.8,2.9-1.8,5.2v18.8h-10.8V683c0-2.2-0.6-4-1.8-5.2
				c-1.2-1.2-2.9-1.8-5-1.8c-2.1,0-3.8,0.6-5,1.8c-1.2,1.2-1.8,2.9-1.8,5.2v18.8h-10.8v-34.6H628.3z"/>
			<path class="st12" d="M689.3,677.6c0-3.1,1.3-5.6,4-7.7c2.7-2.1,6.3-3.1,10.8-3.1c4.5,0,8.2,1,11,3c2.8,2,4.3,4.8,4.4,8.3h-11.1
				c-0.1-1.2-0.5-2-1.3-2.4c-0.7-0.4-1.8-0.6-3.2-0.6c-2.8,0-4.2,0.8-4.2,2.5c0,1.5,1.7,2.6,5.2,3.2c3.5,0.6,6.7,1.5,9.6,2.7
				c1.5,0.6,2.7,1.5,3.7,2.9c1,1.3,1.5,3,1.5,4.9c0,3.2-1.4,5.9-4.2,7.9c-2.8,2-6.4,3.1-10.7,3.1c-4.3,0-7.9-1-10.8-2.9
				c-2.9-1.9-4.4-4.8-4.7-8.5h11.1c0.3,2.1,1.8,3.2,4.6,3.2c1.3,0,2.3-0.3,3.1-0.9c0.8-0.6,1.2-1.3,1.2-2.2s-0.7-1.6-2.1-2.2
				c-1.4-0.5-3-1-5-1.4c-1.9-0.4-3.9-0.8-5.9-1.4c-2-0.6-3.6-1.5-5-2.9C690,681.7,689.3,679.9,689.3,677.6z"/>
			<path class="st12" d="M748.2,692.8h3.9v9h-5.5c-4,0-7-0.9-9.2-2.6c-2.2-1.7-3.3-4.7-3.3-8.8V676h-3.3v-8.8h3.3v-8.4h10.8v8.4h7.1
				v8.8h-7.1v14.4C744.9,692,746,692.8,748.2,692.8z"/>
			<path class="st12" d="M780.8,702.2c-5.1,0-9.4-1.6-12.7-4.9c-3.3-3.2-4.9-7.5-4.9-12.9c0-5.4,1.6-9.6,4.9-12.8
				c3.3-3.2,7.5-4.8,12.7-4.8c5.2,0,9.5,1.6,12.9,4.7c3.4,3.1,5.1,7.5,5.1,13.1c0,1.2-0.1,2.3-0.3,3.3h-24.3
				c0.2,1.5,0.9,2.8,2.1,3.7c1.2,1,2.5,1.5,3.8,1.5c1.4,0,2.4-0.1,3.1-0.4c0.7-0.3,1.2-0.5,1.5-0.8c0.3-0.3,0.7-0.7,1.2-1.3h11.7
				c-1,3.5-3,6.3-6.1,8.4C788.5,701.2,784.9,702.2,780.8,702.2z M785.4,677.4c-1.3-1-2.8-1.5-4.5-1.5c-1.7,0-3.2,0.5-4.4,1.5
				c-1.2,1-1.9,2.3-2.2,3.9h13.2C787.4,679.7,786.6,678.4,785.4,677.4z"/>
			<path class="st12" d="M822.9,667.2v6.4c2.5-4.5,5.9-6.8,10.1-6.8v10.8h-2.7c-2.5,0-4.4,0.6-5.6,1.7c-1.2,1.2-1.9,3.2-1.9,6.1
				v16.4h-10.8v-34.6H822.9z"/>
			<path class="st12" d="M847.3,697.3c-3.1-3.3-4.7-7.5-4.7-12.7c0-5.2,1.6-9.4,4.7-12.7c3.1-3.3,6.9-5,11.4-5
				c4.5,0,7.9,1.6,10.3,4.9v-15.8h10.8v45.9h-10.8v-5c-2.6,3.6-6.1,5.5-10.5,5.5C854.2,702.2,850.5,700.6,847.3,697.3z M866.8,690.8
				c1.6-1.5,2.3-3.6,2.3-6.3c0-2.7-0.8-4.8-2.3-6.3c-1.6-1.5-3.4-2.2-5.4-2.2c-2,0-3.8,0.7-5.4,2.2c-1.6,1.5-2.3,3.6-2.3,6.3
				c0,2.7,0.8,4.8,2.3,6.3c1.6,1.5,3.4,2.2,5.4,2.2C863.4,693.1,865.2,692.3,866.8,690.8z"/>
			<path class="st12" d="M896.4,697.3c-3.1-3.3-4.7-7.5-4.7-12.7c0-5.2,1.6-9.4,4.7-12.7c3.1-3.3,6.9-5,11.4-5
				c4.5,0,7.9,1.6,10.3,4.9v-4.5h10.8v34.6h-10.8v-5c-2.6,3.6-6.1,5.5-10.5,5.5C903.2,702.2,899.5,700.6,896.4,697.3z M915.8,690.8
				c1.6-1.5,2.3-3.6,2.3-6.3c0-2.7-0.8-4.8-2.3-6.3c-1.6-1.5-3.4-2.2-5.4-2.2c-2,0-3.8,0.7-5.4,2.2c-1.6,1.5-2.3,3.6-2.3,6.3
				c0,2.7,0.8,4.8,2.3,6.3c1.6,1.5,3.4,2.2,5.4,2.2C912.4,693.1,914.2,692.3,915.8,690.8z"/>
			<path class="st12" d="M955.6,667.2v5.1c2.2-3.6,5.8-5.5,10.7-5.5c2.6,0,4.9,0.6,7,1.7c2,1.2,3.6,2.8,4.8,5c1.3-2,3-3.6,5.1-4.9
				c2.1-1.2,4.4-1.8,7-1.8c4.3,0,7.7,1.3,10.3,3.9c2.5,2.6,3.8,6.2,3.8,10.8v20.2h-10.8V683c0-2.2-0.6-4-1.8-5.2
				c-1.2-1.2-2.9-1.8-5-1.8c-2.1,0-3.8,0.6-5,1.8c-1.2,1.2-1.8,2.9-1.8,5.2v18.8h-10.8V683c0-2.2-0.6-4-1.8-5.2
				c-1.2-1.2-2.9-1.8-5-1.8c-2.1,0-3.8,0.6-5,1.8c-1.2,1.2-1.8,2.9-1.8,5.2v18.8h-10.8v-34.6H955.6z"/>
		</g>
	</g>
</g>
<g id="图层_5" class="st0">
</g>
<g id="图层_6" class="st0">
	
		<image style="display:inline;overflow:visible;" width="888" height="582" xlink:href="BECD5BA.png"  transform="matrix(1.5394 0 0 1.5394 102.7209 156.5958)">
	</image>
</g>
<g id="图层_2" class="st0">
	<g class="st1">
		<g>
			<g>
				<g>
					<defs>
						<polygon id="SVGID_10_" points="666.7,373.5 666.7,464.5 666.4,464.5 609.4,373.5 598.8,373.5 598.8,477 608.1,476.9 
							608.1,387.5 608.4,387.5 664.3,477 676.1,477 676.1,373.4 						"/>
					</defs>
					<clipPath id="SVGID_11_">
						<use xlink:href="#SVGID_10_"  style="overflow:visible;"/>
					</clipPath>
					
						<linearGradient id="SVGID_12_" gradientUnits="userSpaceOnUse" x1="-141.4825" y1="1075.3442" x2="-140.57" y2="1075.3442" gradientTransform="matrix(0 347.5461 347.5461 0 -373094.2813 49453.6016)">
						<stop  offset="0" style="stop-color:#5BB647"/>
						<stop  offset="0.2278" style="stop-color:#5BB647"/>
						<stop  offset="0.4173" style="stop-color:#5BB647"/>
						<stop  offset="0.6053" style="stop-color:#32B04A"/>
						<stop  offset="0.7774" style="stop-color:#0BA84B"/>
						<stop  offset="0.9943" style="stop-color:#11A24B"/>
						<stop  offset="1" style="stop-color:#11A24B"/>
					</linearGradient>
					<rect x="598.8" y="373.4" class="st13" width="77.3" height="103.6"/>
				</g>
				<g>
					<defs>
						<polygon id="SVGID_13_" points="706.6,373.5 706.6,477 766.3,477 770.3,468.4 715.9,468.4 715.9,427.8 762.2,427.8 
							766.1,419.2 715.9,419.2 715.9,382.1 764.2,382.1 768.1,373.5 						"/>
					</defs>
					<clipPath id="SVGID_14_">
						<use xlink:href="#SVGID_13_"  style="overflow:visible;"/>
					</clipPath>
					
						<linearGradient id="SVGID_15_" gradientUnits="userSpaceOnUse" x1="-141.4822" y1="1075.6349" x2="-140.5702" y2="1075.6349" gradientTransform="matrix(0 347.5461 347.5461 0 -373094.2813 49453.6016)">
						<stop  offset="0" style="stop-color:#5BB647"/>
						<stop  offset="0.2278" style="stop-color:#5BB647"/>
						<stop  offset="0.4173" style="stop-color:#5BB647"/>
						<stop  offset="0.6053" style="stop-color:#32B04A"/>
						<stop  offset="0.7774" style="stop-color:#0BA84B"/>
						<stop  offset="0.9943" style="stop-color:#11A24B"/>
						<stop  offset="1" style="stop-color:#11A24B"/>
					</linearGradient>
					<rect x="706.6" y="373.5" class="st14" width="63.7" height="103.5"/>
				</g>
				<g>
					<defs>
						<path id="SVGID_16_" d="M821.7,466.7c-4.5-2.6-8.3-6-11.2-10.3c-2.9-4.3-5-9.1-6.4-14.6c-1.3-5.4-2-11-2-16.6
							c0-5.6,0.7-11.2,2-16.6c1.3-5.5,3.5-10.3,6.4-14.6c2.9-4.3,6.6-7.7,11.2-10.3c4.5-2.6,10.1-3.9,16.6-3.9
							c6.4,0,11.9,1.3,16.5,3.9c4.6,2.6,8.3,6,11.3,10.3c2.9,4.3,5,9.1,6.4,14.6c1.3,5.4,2,11,2,16.6c0,5.6-0.7,11.2-2,16.6
							c-1.3,5.4-3.5,10.3-6.4,14.6c-2.9,4.3-6.7,7.7-11.3,10.3c-4.6,2.6-10.1,3.9-16.5,3.9C831.7,470.6,826.2,469.3,821.7,466.7
							 M818.4,375.2c-5.7,2.6-10.6,6.2-14.5,11c-3.9,4.7-6.9,10.4-8.9,17.1c-2,6.6-3,14-3,22c0,8,1,15.4,3,22c2,6.6,5,12.3,8.9,17.1
							c3.9,4.7,8.7,8.4,14.5,11c5.7,2.6,12.3,3.9,19.8,3.9c7.5,0,14.1-1.3,19.8-3.9c5.7-2.6,10.6-6.2,14.5-11
							c3.9-4.7,6.9-10.4,8.9-17.1c2-6.6,3-14,3-22c0-8-1-15.4-3-22c-2-6.6-5-12.3-8.9-17.1c-3.9-4.7-8.7-8.4-14.5-11
							c-5.7-2.6-12.3-3.9-19.8-3.9C830.8,371.3,824.2,372.6,818.4,375.2"/>
					</defs>
					<clipPath id="SVGID_17_">
						<use xlink:href="#SVGID_16_"  style="overflow:visible;"/>
					</clipPath>
					
						<linearGradient id="SVGID_18_" gradientUnits="userSpaceOnUse" x1="-141.4829" y1="1075.922" x2="-140.5699" y2="1075.922" gradientTransform="matrix(0 347.5461 347.5461 0 -373094.2813 49453.6016)">
						<stop  offset="0" style="stop-color:#5BB647"/>
						<stop  offset="0.2278" style="stop-color:#5BB647"/>
						<stop  offset="0.4173" style="stop-color:#5BB647"/>
						<stop  offset="0.6053" style="stop-color:#32B04A"/>
						<stop  offset="0.7774" style="stop-color:#0BA84B"/>
						<stop  offset="0.9943" style="stop-color:#11A24B"/>
						<stop  offset="1" style="stop-color:#11A24B"/>
					</linearGradient>
					<rect x="792" y="371.3" class="st15" width="92.4" height="107.8"/>
				</g>
				<path class="st7" d="M794.3,343.3"/>
			</g>
			<g>
				<g>
					<g>
						<polygon class="st8" points="917,401.1 944.8,374.6 944.8,406.5 						"/>
						<polygon class="st8" points="1007.2,374.6 1036.3,400.8 1001,402.6 						"/>
						<polygon class="st9" points="1036.3,400.8 917.1,400.9 975.8,459.4 						"/>
						<polyline class="st10" points="976.2,400.9 975.7,479.2 917,429.9 917,401.1 						"/>
					</g>
					<polygon class="st10" points="1007.2,374.6 1007.2,401 976.2,400.9 					"/>
					<path class="st11" d="M946.4,373"/>
					<polygon class="st11" points="944.8,374.6 976.2,400.9 917,401.1 					"/>
				</g>
				<polygon class="st11" points="1036.3,400.8 1036.3,430.1 975.7,479.2 975.7,443.4 				"/>
			</g>
		</g>
		<g>
			<path class="st12" d="M626.8,544.8l-2.5-7.3h-16l-2.5,7.3h-11.5l15.4-43.6H623l15.4,43.6H626.8z M611.1,529.4h10.5l-5.3-15.5
				L611.1,529.4z"/>
			<path class="st12" d="M659.3,510.2v5.1c2.2-3.6,5.8-5.5,10.7-5.5c2.6,0,4.9,0.6,7,1.7c2,1.2,3.6,2.8,4.8,5c1.3-2,3-3.6,5.1-4.9
				c2.1-1.2,4.4-1.8,7-1.8c4.3,0,7.7,1.3,10.3,3.9c2.5,2.6,3.8,6.2,3.8,10.8v20.2h-10.8V526c0-2.2-0.6-4-1.8-5.2
				c-1.2-1.2-2.9-1.8-5-1.8c-2.1,0-3.8,0.6-5,1.8c-1.2,1.2-1.8,2.9-1.8,5.2v18.8h-10.8V526c0-2.2-0.6-4-1.8-5.2
				c-1.2-1.2-2.9-1.8-5-1.8c-2.1,0-3.8,0.6-5,1.8c-1.2,1.2-1.8,2.9-1.8,5.2v18.8h-10.8v-34.6H659.3z"/>
			<path class="st12" d="M720.3,520.6c0-3.1,1.3-5.6,4-7.7c2.7-2.1,6.3-3.1,10.8-3.1c4.5,0,8.2,1,11,3c2.8,2,4.3,4.8,4.4,8.3h-11.1
				c-0.1-1.2-0.5-2-1.3-2.4c-0.7-0.4-1.8-0.6-3.2-0.6c-2.8,0-4.2,0.8-4.2,2.5c0,1.5,1.7,2.6,5.2,3.2c3.5,0.6,6.7,1.5,9.6,2.7
				c1.5,0.6,2.7,1.5,3.7,2.9c1,1.3,1.5,3,1.5,4.9c0,3.2-1.4,5.9-4.2,7.9c-2.8,2-6.4,3.1-10.7,3.1c-4.3,0-7.9-1-10.8-2.9
				c-2.9-1.9-4.4-4.8-4.7-8.5h11.1c0.3,2.1,1.8,3.2,4.6,3.2c1.3,0,2.3-0.3,3.1-0.9c0.8-0.6,1.2-1.3,1.2-2.2s-0.7-1.6-2.1-2.2
				c-1.4-0.5-3-1-5-1.4c-1.9-0.4-3.9-0.8-5.9-1.4c-2-0.6-3.6-1.5-5-2.9C721,524.7,720.3,522.9,720.3,520.6z"/>
			<path class="st12" d="M779.2,535.8h3.9v9h-5.5c-4,0-7-0.9-9.2-2.6c-2.2-1.7-3.3-4.7-3.3-8.8V519h-3.3v-8.8h3.3v-8.4h10.8v8.4h7.1
				v8.8h-7.1v14.4C775.9,535,777,535.8,779.2,535.8z"/>
			<path class="st12" d="M811.8,545.2c-5.1,0-9.4-1.6-12.7-4.9c-3.3-3.2-4.9-7.5-4.9-12.9c0-5.4,1.6-9.6,4.9-12.8
				c3.3-3.2,7.5-4.8,12.7-4.8c5.2,0,9.5,1.6,12.9,4.7c3.4,3.1,5.1,7.5,5.1,13.1c0,1.2-0.1,2.3-0.3,3.3h-24.3
				c0.2,1.5,0.9,2.8,2.1,3.7c1.2,1,2.5,1.5,3.8,1.5c1.4,0,2.4-0.1,3.1-0.4c0.7-0.3,1.2-0.5,1.5-0.8c0.3-0.3,0.7-0.7,1.2-1.3h11.7
				c-1,3.5-3,6.3-6.1,8.4C819.5,544.2,815.9,545.2,811.8,545.2z M816.4,520.4c-1.3-1-2.8-1.5-4.5-1.5c-1.7,0-3.2,0.5-4.4,1.5
				c-1.2,1-1.9,2.3-2.2,3.9h13.2C818.4,522.7,817.6,521.4,816.4,520.4z"/>
			<path class="st12" d="M853.9,510.2v6.4c2.5-4.5,5.9-6.8,10.1-6.8v10.8h-2.7c-2.5,0-4.4,0.6-5.6,1.7c-1.2,1.2-1.9,3.2-1.9,6.1
				v16.4h-10.8v-34.6H853.9z"/>
			<path class="st12" d="M878.3,540.3c-3.1-3.3-4.7-7.5-4.7-12.7c0-5.2,1.6-9.4,4.7-12.7c3.1-3.3,6.9-5,11.4-5
				c4.5,0,7.9,1.6,10.3,4.9v-15.8h10.8v45.9h-10.8v-5c-2.6,3.6-6.1,5.5-10.5,5.5C885.2,545.2,881.5,543.6,878.3,540.3z M897.8,533.8
				c1.6-1.5,2.3-3.6,2.3-6.3c0-2.7-0.8-4.8-2.3-6.3c-1.6-1.5-3.4-2.2-5.4-2.2c-2,0-3.8,0.7-5.4,2.2c-1.6,1.5-2.3,3.6-2.3,6.3
				c0,2.7,0.8,4.8,2.3,6.3c1.6,1.5,3.4,2.2,5.4,2.2C894.4,536.1,896.2,535.3,897.8,533.8z"/>
			<path class="st12" d="M927.4,540.3c-3.1-3.3-4.7-7.5-4.7-12.7c0-5.2,1.6-9.4,4.7-12.7c3.1-3.3,6.9-5,11.4-5
				c4.5,0,7.9,1.6,10.3,4.9v-4.5h10.8v34.6h-10.8v-5c-2.6,3.6-6.1,5.5-10.5,5.5C934.2,545.2,930.5,543.6,927.4,540.3z M946.8,533.8
				c1.6-1.5,2.3-3.6,2.3-6.3c0-2.7-0.8-4.8-2.3-6.3c-1.6-1.5-3.4-2.2-5.4-2.2c-2,0-3.8,0.7-5.4,2.2c-1.6,1.5-2.3,3.6-2.3,6.3
				c0,2.7,0.8,4.8,2.3,6.3c1.6,1.5,3.4,2.2,5.4,2.2C943.4,536.1,945.2,535.3,946.8,533.8z"/>
			<path class="st12" d="M986.6,510.2v5.1c2.2-3.6,5.8-5.5,10.7-5.5c2.6,0,4.9,0.6,7,1.7c2,1.2,3.6,2.8,4.8,5c1.3-2,3-3.6,5.1-4.9
				c2.1-1.2,4.4-1.8,7-1.8c4.3,0,7.7,1.3,10.3,3.9c2.5,2.6,3.8,6.2,3.8,10.8v20.2h-10.8V526c0-2.2-0.6-4-1.8-5.2
				c-1.2-1.2-2.9-1.8-5-1.8c-2.1,0-3.8,0.6-5,1.8c-1.2,1.2-1.8,2.9-1.8,5.2v18.8h-10.8V526c0-2.2-0.6-4-1.8-5.2
				c-1.2-1.2-2.9-1.8-5-1.8c-2.1,0-3.8,0.6-5,1.8c-1.2,1.2-1.8,2.9-1.8,5.2v18.8h-10.8v-34.6H986.6z"/>
		</g>
	</g>
</g>
<g id="图层_3" class="st0">
	<path class="st16" d="M344.4,275.1c0,66.4-53.8,120.2-120.2,120.2c-66.4,0-120.2-53.8-120.2-120.2c0-66.4,53.8-120.2,120.2-120.2
		C290.6,154.9,344.4,208.7,344.4,275.1z"/>
	<path class="st17" d="M224.2,154.9c66.4,0,120.2,53.8,120.2,120.2c0,66.4-53.8,120.2-120.2,120.2"/>
</g>
<g id="图层_4">
	<path class="st18" d="M174.9,190.6c0,19.6-15.9,35.5-35.5,35.5c-19.6,0-35.5-15.9-35.5-35.5c0-19.6,15.9-35.5,35.5-35.5
		C159,155.1,174.9,171,174.9,190.6z"/>
	<path class="st19" d="M175.2,190c0,19.6-15.9,35.5-35.5,35.5c-19.6,0-35.5-15.9-35.5-35.5c0-19.6,15.9-35.5,35.5-35.5
		C159.3,154.6,175.2,170.4,175.2,190z"/>
	<g class="st20">
		<defs>
			<rect id="SVGID_19_" x="-0.4" y="1.4" class="st20" width="1159.5" height="749.2"/>
		</defs>
		<clipPath id="SVGID_20_">
			<use xlink:href="#SVGID_19_"  style="overflow:visible;"/>
		</clipPath>
		<g class="st21">
			<polygon class="st22" points="-581.5,1172.6 1054.6,-446.4 1041.5,-459.4 -594.6,1159.6 			"/>
			<polygon class="st22" points="-556.8,1197.1 1079.3,-421.9 1066.2,-434.9 -569.9,1184.1 			"/>
			<polygon class="st22" points="-530.7,1222.9 1105.4,-396.2 1092.2,-409.2 -543.9,1209.9 			"/>
			<polygon class="st22" points="-658.6,1096.4 977.5,-522.7 964.4,-535.6 -671.7,1083.4 			"/>
			<polygon class="st22" points="-633.9,1120.9 1002.3,-498.2 989.1,-511.2 -647,1107.9 			"/>
			<polygon class="st22" points="-607.8,1146.6 1028.3,-472.4 1015.2,-485.4 -620.9,1133.6 			"/>
			<polygon class="st22" points="-732.5,1015.5 903.6,-603.5 890.4,-616.5 -745.7,1002.5 			"/>
			<polygon class="st22" points="-707.8,1040 928.3,-579.1 915.1,-592.1 -721,1027 			"/>
			<polygon class="st22" points="-681.8,1065.7 954.3,-553.3 941.2,-566.3 -694.9,1052.8 			"/>
		</g>
		<g class="st21">
			<polygon class="st22" points="-815.5,941.1 820.6,-678 807.5,-691 -828.6,928.1 			"/>
			<polygon class="st22" points="-790.8,965.6 845.3,-653.5 832.2,-666.5 -803.9,952.6 			"/>
			<polygon class="st22" points="-764.7,991.3 871.4,-627.7 858.2,-640.7 -777.9,978.3 			"/>
			<polygon class="st22" points="-892.6,864.8 743.5,-754.2 730.4,-767.2 -905.7,851.8 			"/>
			<polygon class="st22" points="-867.9,889.3 768.2,-729.7 755.1,-742.7 -881,876.3 			"/>
			<polygon class="st22" points="-841.8,915.1 794.3,-704 781.2,-717 -854.9,902.1 			"/>
			<polygon class="st22" points="-966.5,784 669.6,-835.1 656.4,-848.1 -979.7,771 			"/>
			<polygon class="st22" points="-941.8,808.4 694.3,-810.6 681.1,-823.6 -955,795.4 			"/>
			<polygon class="st22" points="-915.8,834.2 720.3,-784.8 707.2,-797.8 -928.9,821.2 			"/>
		</g>
	</g>
</g>
</svg>
