<?xml version="1.0" encoding="utf-8"?>
<!-- Generator: Adobe Illustrator 22.0.1, SVG Export Plug-In . SVG Version: 6.00 Build 0)  -->
<svg version="1.1" xmlns="http://www.w3.org/2000/svg" xmlns:xlink="http://www.w3.org/1999/xlink" x="0px" y="0px"
	 viewBox="0 0 71.4 71.7" style="enable-background:new 0 0 71.4 71.7;" xml:space="preserve">
<style type="text/css">
	.st0{display:none;}
	.st1{display:inline;}
	.st2{fill:#7ECB38;}
	.st3{opacity:0.2;fill:#006838;}
	.st4{clip-path:url(#SVGID_2_);fill:url(#SVGID_3_);}
	.st5{clip-path:url(#SVGID_5_);fill:url(#SVGID_6_);}
	.st6{clip-path:url(#SVGID_8_);fill:url(#SVGID_9_);}
	.st7{fill:#F04D4E;}
	.st8{fill:#C61333;}
	.st9{fill:#E91C24;}
	.st10{fill:#DD1934;}
	.st11{fill:#EB4039;}
	.st12{fill:#231F20;}
	.st13{clip-path:url(#SVGID_11_);fill:url(#SVGID_12_);}
	.st14{clip-path:url(#SVGID_14_);fill:url(#SVGID_15_);}
	.st15{clip-path:url(#SVGID_17_);fill:url(#SVGID_18_);}
	.st16{display:inline;fill:#EB4039;}
	.st17{display:inline;opacity:0.6;fill:#BB1E2D;}
</style>
<g id="图层_1" class="st0">
	<g class="st1">
		<path class="st2" d="M240.7,120.6c0,66.5-53.9,120.4-120.4,120.4C53.8,241-0.1,187.1-0.1,120.6C-0.1,54.2,53.8,0.3,120.3,0.3
			C186.8,0.3,240.7,54.2,240.7,120.6z"/>
		<path class="st3" d="M120.3,1.1c66.5,0,120.4,53.9,120.4,120.4c0,66.5-53.9,120.4-120.4,120.4"/>
	</g>
	<g class="st1">
		<g>
			<g>
				<g>
					<defs>
						<polygon id="SVGID_1_" points="531.7,375.6 531.7,466.7 531.4,466.7 474.4,375.6 463.7,375.6 463.7,479.1 473.1,479 
							473.1,389.7 473.3,389.7 529.3,479.1 541,479.1 541,375.5 						"/>
					</defs>
					<clipPath id="SVGID_2_">
						<use xlink:href="#SVGID_1_"  style="overflow:visible;"/>
					</clipPath>
					
						<linearGradient id="SVGID_3_" gradientUnits="userSpaceOnUse" x1="-245.0533" y1="920.3811" x2="-244.1408" y2="920.3811" gradientTransform="matrix(0 347.5461 347.5461 0 -319372.4688 85451.3516)">
						<stop  offset="0" style="stop-color:#5BB647"/>
						<stop  offset="0.2278" style="stop-color:#5BB647"/>
						<stop  offset="0.4173" style="stop-color:#5BB647"/>
						<stop  offset="0.6053" style="stop-color:#32B04A"/>
						<stop  offset="0.7774" style="stop-color:#0BA84B"/>
						<stop  offset="0.9943" style="stop-color:#11A24B"/>
						<stop  offset="1" style="stop-color:#11A24B"/>
					</linearGradient>
					<rect x="463.7" y="375.5" class="st4" width="77.3" height="103.6"/>
				</g>
				<g>
					<defs>
						<polygon id="SVGID_4_" points="571.6,375.6 571.6,479.1 631.3,479.1 635.2,470.5 580.9,470.5 580.9,430 627.2,430 
							631.1,421.4 580.9,421.4 580.9,384.2 629.2,384.2 633.1,375.6 						"/>
					</defs>
					<clipPath id="SVGID_5_">
						<use xlink:href="#SVGID_4_"  style="overflow:visible;"/>
					</clipPath>
					
						<linearGradient id="SVGID_6_" gradientUnits="userSpaceOnUse" x1="-245.053" y1="920.6718" x2="-244.141" y2="920.6718" gradientTransform="matrix(0 347.5461 347.5461 0 -319372.4688 85451.3516)">
						<stop  offset="0" style="stop-color:#5BB647"/>
						<stop  offset="0.2278" style="stop-color:#5BB647"/>
						<stop  offset="0.4173" style="stop-color:#5BB647"/>
						<stop  offset="0.6053" style="stop-color:#32B04A"/>
						<stop  offset="0.7774" style="stop-color:#0BA84B"/>
						<stop  offset="0.9943" style="stop-color:#11A24B"/>
						<stop  offset="1" style="stop-color:#11A24B"/>
					</linearGradient>
					<rect x="571.6" y="375.6" class="st5" width="63.7" height="103.5"/>
				</g>
				<g>
					<defs>
						<path id="SVGID_7_" d="M686.6,468.8c-4.5-2.6-8.3-6-11.2-10.3c-2.9-4.3-5-9.1-6.4-14.6c-1.3-5.4-2-11-2-16.6
							c0-5.6,0.7-11.2,2-16.6c1.3-5.5,3.5-10.3,6.4-14.6c2.9-4.3,6.6-7.7,11.2-10.3c4.5-2.6,10.1-3.9,16.6-3.9
							c6.4,0,11.9,1.3,16.5,3.9c4.6,2.6,8.3,6,11.3,10.3c2.9,4.3,5,9.1,6.4,14.6c1.3,5.4,2,11,2,16.6c0,5.6-0.7,11.2-2,16.6
							c-1.3,5.4-3.5,10.3-6.4,14.6c-2.9,4.3-6.7,7.7-11.3,10.3c-4.6,2.6-10.1,3.9-16.5,3.9C696.7,472.7,691.2,471.4,686.6,468.8
							 M683.4,377.3c-5.7,2.6-10.6,6.2-14.5,11c-3.9,4.7-6.9,10.4-8.9,17.1c-2,6.6-3,14-3,22c0,8,1,15.4,3,22c2,6.6,5,12.3,8.9,17.1
							c3.9,4.7,8.7,8.4,14.5,11c5.7,2.6,12.3,3.9,19.8,3.9c7.5,0,14.1-1.3,19.8-3.9c5.7-2.6,10.6-6.2,14.5-11
							c3.9-4.7,6.9-10.4,8.9-17.1c2-6.6,3-14,3-22c0-8-1-15.4-3-22c-2-6.6-5-12.3-8.9-17.1c-3.9-4.7-8.7-8.4-14.5-11
							c-5.7-2.6-12.3-3.9-19.8-3.9C695.7,373.5,689.1,374.7,683.4,377.3"/>
					</defs>
					<clipPath id="SVGID_8_">
						<use xlink:href="#SVGID_7_"  style="overflow:visible;"/>
					</clipPath>
					
						<linearGradient id="SVGID_9_" gradientUnits="userSpaceOnUse" x1="-245.0537" y1="920.9589" x2="-244.1407" y2="920.9589" gradientTransform="matrix(0 347.5461 347.5461 0 -319372.4688 85451.3516)">
						<stop  offset="0" style="stop-color:#5BB647"/>
						<stop  offset="0.2278" style="stop-color:#5BB647"/>
						<stop  offset="0.4173" style="stop-color:#5BB647"/>
						<stop  offset="0.6053" style="stop-color:#32B04A"/>
						<stop  offset="0.7774" style="stop-color:#0BA84B"/>
						<stop  offset="0.9943" style="stop-color:#11A24B"/>
						<stop  offset="1" style="stop-color:#11A24B"/>
					</linearGradient>
					<rect x="657" y="373.5" class="st6" width="92.4" height="107.8"/>
				</g>
				<path class="st7" d="M659.3,345.5"/>
			</g>
			<g>
				<g>
					<g>
						<polygon class="st8" points="782,403.3 809.8,376.7 809.8,408.6 						"/>
						<polygon class="st8" points="872.2,376.7 901.3,402.9 866,404.8 						"/>
						<polygon class="st9" points="901.3,402.9 782.1,403 840.8,461.5 						"/>
						<polyline class="st10" points="841.2,403 840.7,481.3 782,432 782,403.3 						"/>
					</g>
					<polygon class="st10" points="872.2,376.7 872.2,403.2 841.2,403 					"/>
					<path class="st11" d="M811.4,375.1"/>
					<polygon class="st11" points="809.8,376.7 841.2,403 782,403.3 					"/>
				</g>
				<polygon class="st11" points="901.3,402.9 901.3,432.2 840.7,481.3 840.7,445.5 				"/>
			</g>
		</g>
		<g>
			<path class="st12" d="M491.7,546.9l-2.5-7.3h-16l-2.5,7.3h-11.5l15.4-43.6H488l15.4,43.6H491.7z M476.1,531.5h10.5l-5.3-15.5
				L476.1,531.5z"/>
			<path class="st12" d="M524.3,512.3v5.1c2.2-3.6,5.8-5.5,10.7-5.5c2.6,0,4.9,0.6,7,1.7c2,1.2,3.6,2.8,4.8,5c1.3-2,3-3.6,5.1-4.9
				c2.1-1.2,4.4-1.8,7-1.8c4.3,0,7.7,1.3,10.3,3.9c2.5,2.6,3.8,6.2,3.8,10.8v20.2h-10.8v-18.8c0-2.2-0.6-4-1.8-5.2
				c-1.2-1.2-2.9-1.8-5-1.8c-2.1,0-3.8,0.6-5,1.8c-1.2,1.2-1.8,2.9-1.8,5.2v18.8h-10.8v-18.8c0-2.2-0.6-4-1.8-5.2
				c-1.2-1.2-2.9-1.8-5-1.8c-2.1,0-3.8,0.6-5,1.8c-1.2,1.2-1.8,2.9-1.8,5.2v18.8h-10.8v-34.6H524.3z"/>
			<path class="st12" d="M585.3,522.7c0-3.1,1.3-5.6,4-7.7c2.7-2.1,6.3-3.1,10.8-3.1c4.5,0,8.2,1,11,3c2.8,2,4.3,4.8,4.4,8.3h-11.1
				c-0.1-1.2-0.5-2-1.3-2.4c-0.7-0.4-1.8-0.6-3.2-0.6c-2.8,0-4.2,0.8-4.2,2.5c0,1.5,1.7,2.6,5.2,3.2c3.5,0.6,6.7,1.5,9.6,2.7
				c1.5,0.6,2.7,1.5,3.7,2.9c1,1.3,1.5,3,1.5,4.9c0,3.2-1.4,5.9-4.2,7.9c-2.8,2-6.4,3.1-10.7,3.1c-4.3,0-7.9-1-10.8-2.9
				c-2.9-1.9-4.4-4.8-4.7-8.5h11.1c0.3,2.1,1.8,3.2,4.6,3.2c1.3,0,2.3-0.3,3.1-0.9c0.8-0.6,1.2-1.3,1.2-2.2s-0.7-1.6-2.1-2.2
				c-1.4-0.5-3-1-5-1.4c-1.9-0.4-3.9-0.8-5.9-1.4c-2-0.6-3.6-1.5-5-2.9C586,526.8,585.3,525,585.3,522.7z"/>
			<path class="st12" d="M644.1,537.9h3.9v9h-5.5c-4,0-7-0.9-9.2-2.6c-2.2-1.7-3.3-4.7-3.3-8.8v-14.4h-3.3v-8.8h3.3v-8.4h10.8v8.4
				h7.1v8.8h-7.1v14.4C640.8,537.1,641.9,537.9,644.1,537.9z"/>
			<path class="st12" d="M676.7,547.4c-5.1,0-9.4-1.6-12.7-4.9c-3.3-3.2-4.9-7.5-4.9-12.9c0-5.4,1.6-9.6,4.9-12.8
				c3.3-3.2,7.5-4.8,12.7-4.8c5.2,0,9.5,1.6,12.9,4.7c3.4,3.1,5.1,7.5,5.1,13.1c0,1.2-0.1,2.3-0.3,3.3h-24.3
				c0.2,1.5,0.9,2.8,2.1,3.7c1.2,1,2.5,1.5,3.8,1.5c1.4,0,2.4-0.1,3.1-0.4c0.7-0.3,1.2-0.5,1.5-0.8c0.3-0.3,0.7-0.7,1.2-1.3h11.7
				c-1,3.5-3,6.3-6.1,8.4C684.5,546.3,680.9,547.4,676.7,547.4z M681.4,522.5c-1.3-1-2.8-1.5-4.5-1.5c-1.7,0-3.2,0.5-4.4,1.5
				c-1.2,1-1.9,2.3-2.2,3.9h13.2C683.3,524.9,682.6,523.5,681.4,522.5z"/>
			<path class="st12" d="M718.9,512.3v6.4c2.5-4.5,5.9-6.8,10.1-6.8v10.8h-2.7c-2.5,0-4.4,0.6-5.6,1.7c-1.2,1.2-1.9,3.2-1.9,6.1
				v16.4h-10.8v-34.6H718.9z"/>
			<path class="st12" d="M743.3,542.4c-3.1-3.3-4.7-7.5-4.7-12.7c0-5.2,1.6-9.4,4.7-12.7c3.1-3.3,6.9-5,11.4-5
				c4.5,0,7.9,1.6,10.3,4.9v-15.8h10.8v45.9h-10.8v-5c-2.6,3.6-6.1,5.5-10.5,5.5C750.2,547.4,746.4,545.7,743.3,542.4z M762.7,535.9
				c1.6-1.5,2.3-3.6,2.3-6.3c0-2.7-0.8-4.8-2.3-6.3c-1.6-1.5-3.4-2.2-5.4-2.2c-2,0-3.8,0.7-5.4,2.2c-1.6,1.5-2.3,3.6-2.3,6.3
				c0,2.7,0.8,4.8,2.3,6.3c1.6,1.5,3.4,2.2,5.4,2.2C759.4,538.2,761.2,537.4,762.7,535.9z"/>
			<path class="st12" d="M792.3,542.4c-3.1-3.3-4.7-7.5-4.7-12.7c0-5.2,1.6-9.4,4.7-12.7c3.1-3.3,6.9-5,11.4-5
				c4.5,0,7.9,1.6,10.3,4.9v-4.5h10.8v34.6h-10.8v-5c-2.6,3.6-6.1,5.5-10.5,5.5C799.2,547.4,795.5,545.7,792.3,542.4z M811.8,535.9
				c1.6-1.5,2.3-3.6,2.3-6.3c0-2.7-0.8-4.8-2.3-6.3c-1.6-1.5-3.4-2.2-5.4-2.2c-2,0-3.8,0.7-5.4,2.2c-1.6,1.5-2.3,3.6-2.3,6.3
				c0,2.7,0.8,4.8,2.3,6.3c1.6,1.5,3.4,2.2,5.4,2.2C808.4,538.2,810.2,537.4,811.8,535.9z"/>
			<path class="st12" d="M851.6,512.3v5.1c2.2-3.6,5.8-5.5,10.7-5.5c2.6,0,4.9,0.6,7,1.7c2,1.2,3.6,2.8,4.8,5c1.3-2,3-3.6,5.1-4.9
				c2.1-1.2,4.4-1.8,7-1.8c4.3,0,7.7,1.3,10.3,3.9c2.5,2.6,3.8,6.2,3.8,10.8v20.2h-10.8v-18.8c0-2.2-0.6-4-1.8-5.2
				c-1.2-1.2-2.9-1.8-5-1.8c-2.1,0-3.8,0.6-5,1.8c-1.2,1.2-1.8,2.9-1.8,5.2v18.8h-10.8v-18.8c0-2.2-0.6-4-1.8-5.2
				c-1.2-1.2-2.9-1.8-5-1.8c-2.1,0-3.8,0.6-5,1.8c-1.2,1.2-1.8,2.9-1.8,5.2v18.8h-10.8v-34.6H851.6z"/>
		</g>
	</g>
</g>
<g id="图层_5" class="st0">
</g>
<g id="图层_6" class="st0">
	
		<image style="display:inline;overflow:visible;" width="888" height="582" xlink:href="180C97D9.png"  transform="matrix(1.5394 0 0 1.5394 -1.3016 1.7219)">
	</image>
</g>
<g id="图层_2" class="st0">
	<g class="st1">
		<g>
			<g>
				<g>
					<defs>
						<polygon id="SVGID_10_" points="562.7,218.6 562.7,309.7 562.4,309.7 505.4,218.6 494.7,218.6 494.7,322.1 504.1,322 
							504.1,232.7 504.3,232.7 560.3,322.1 572,322.1 572,218.5 						"/>
					</defs>
					<clipPath id="SVGID_11_">
						<use xlink:href="#SVGID_10_"  style="overflow:visible;"/>
					</clipPath>
					
						<linearGradient id="SVGID_12_" gradientUnits="userSpaceOnUse" x1="-245.505" y1="920.4703" x2="-244.5926" y2="920.4703" gradientTransform="matrix(0 347.5461 347.5461 0 -319372.4688 85451.3516)">
						<stop  offset="0" style="stop-color:#5BB647"/>
						<stop  offset="0.2278" style="stop-color:#5BB647"/>
						<stop  offset="0.4173" style="stop-color:#5BB647"/>
						<stop  offset="0.6053" style="stop-color:#32B04A"/>
						<stop  offset="0.7774" style="stop-color:#0BA84B"/>
						<stop  offset="0.9943" style="stop-color:#11A24B"/>
						<stop  offset="1" style="stop-color:#11A24B"/>
					</linearGradient>
					<rect x="494.7" y="218.5" class="st13" width="77.3" height="103.6"/>
				</g>
				<g>
					<defs>
						<polygon id="SVGID_13_" points="602.6,218.6 602.6,322.1 662.3,322.1 666.2,313.5 611.9,313.5 611.9,273 658.2,273 
							662.1,264.4 611.9,264.4 611.9,227.2 660.2,227.2 664.1,218.6 						"/>
					</defs>
					<clipPath id="SVGID_14_">
						<use xlink:href="#SVGID_13_"  style="overflow:visible;"/>
					</clipPath>
					
						<linearGradient id="SVGID_15_" gradientUnits="userSpaceOnUse" x1="-245.5047" y1="920.7609" x2="-244.5928" y2="920.7609" gradientTransform="matrix(0 347.5461 347.5461 0 -319372.4688 85451.3516)">
						<stop  offset="0" style="stop-color:#5BB647"/>
						<stop  offset="0.2278" style="stop-color:#5BB647"/>
						<stop  offset="0.4173" style="stop-color:#5BB647"/>
						<stop  offset="0.6053" style="stop-color:#32B04A"/>
						<stop  offset="0.7774" style="stop-color:#0BA84B"/>
						<stop  offset="0.9943" style="stop-color:#11A24B"/>
						<stop  offset="1" style="stop-color:#11A24B"/>
					</linearGradient>
					<rect x="602.6" y="218.6" class="st14" width="63.7" height="103.5"/>
				</g>
				<g>
					<defs>
						<path id="SVGID_16_" d="M717.6,311.8c-4.5-2.6-8.3-6-11.2-10.3c-2.9-4.3-5-9.1-6.4-14.6c-1.3-5.4-2-11-2-16.6
							c0-5.6,0.7-11.2,2-16.6c1.3-5.5,3.5-10.3,6.4-14.6c2.9-4.3,6.6-7.7,11.2-10.3c4.5-2.6,10.1-3.9,16.6-3.9
							c6.4,0,11.9,1.3,16.5,3.9c4.6,2.6,8.3,6,11.3,10.3c2.9,4.3,5,9.1,6.4,14.6c1.3,5.4,2,11,2,16.6c0,5.6-0.7,11.2-2,16.6
							c-1.3,5.4-3.5,10.3-6.4,14.6c-2.9,4.3-6.7,7.7-11.3,10.3c-4.6,2.6-10.1,3.9-16.5,3.9C727.7,315.7,722.2,314.4,717.6,311.8
							 M714.4,220.3c-5.7,2.6-10.6,6.2-14.5,11c-3.9,4.7-6.9,10.4-8.9,17.1c-2,6.6-3,14-3,22c0,8,1,15.4,3,22c2,6.6,5,12.3,8.9,17.1
							c3.9,4.7,8.7,8.4,14.5,11c5.7,2.6,12.3,3.9,19.8,3.9c7.5,0,14.1-1.3,19.8-3.9c5.7-2.6,10.6-6.2,14.5-11
							c3.9-4.7,6.9-10.4,8.9-17.1c2-6.6,3-14,3-22c0-8-1-15.4-3-22c-2-6.6-5-12.3-8.9-17.1c-3.9-4.7-8.7-8.4-14.5-11
							c-5.7-2.6-12.3-3.9-19.8-3.9C726.7,216.5,720.1,217.7,714.4,220.3"/>
					</defs>
					<clipPath id="SVGID_17_">
						<use xlink:href="#SVGID_16_"  style="overflow:visible;"/>
					</clipPath>
					
						<linearGradient id="SVGID_18_" gradientUnits="userSpaceOnUse" x1="-245.5054" y1="921.0481" x2="-244.5924" y2="921.0481" gradientTransform="matrix(0 347.5461 347.5461 0 -319372.4688 85451.3516)">
						<stop  offset="0" style="stop-color:#5BB647"/>
						<stop  offset="0.2278" style="stop-color:#5BB647"/>
						<stop  offset="0.4173" style="stop-color:#5BB647"/>
						<stop  offset="0.6053" style="stop-color:#32B04A"/>
						<stop  offset="0.7774" style="stop-color:#0BA84B"/>
						<stop  offset="0.9943" style="stop-color:#11A24B"/>
						<stop  offset="1" style="stop-color:#11A24B"/>
					</linearGradient>
					<rect x="688" y="216.5" class="st15" width="92.4" height="107.8"/>
				</g>
				<path class="st7" d="M690.3,188.5"/>
			</g>
			<g>
				<g>
					<g>
						<polygon class="st8" points="813,246.3 840.8,219.7 840.8,251.6 						"/>
						<polygon class="st8" points="903.2,219.7 932.3,245.9 897,247.8 						"/>
						<polygon class="st9" points="932.3,245.9 813.1,246 871.8,304.5 						"/>
						<polyline class="st10" points="872.2,246 871.7,324.3 813,275 813,246.3 						"/>
					</g>
					<polygon class="st10" points="903.2,219.7 903.2,246.2 872.2,246 					"/>
					<path class="st11" d="M842.4,218.1"/>
					<polygon class="st11" points="840.8,219.7 872.2,246 813,246.3 					"/>
				</g>
				<polygon class="st11" points="932.3,245.9 932.3,275.2 871.7,324.3 871.7,288.5 				"/>
			</g>
		</g>
		<g>
			<path class="st12" d="M522.7,389.9l-2.5-7.3h-16l-2.5,7.3h-11.5l15.4-43.6H519l15.4,43.6H522.7z M507.1,374.5h10.5l-5.3-15.5
				L507.1,374.5z"/>
			<path class="st12" d="M555.3,355.3v5.1c2.2-3.6,5.8-5.5,10.7-5.5c2.6,0,4.9,0.6,7,1.7c2,1.2,3.6,2.8,4.8,5c1.3-2,3-3.6,5.1-4.9
				c2.1-1.2,4.4-1.8,7-1.8c4.3,0,7.7,1.3,10.3,3.9c2.5,2.6,3.8,6.2,3.8,10.8v20.2h-10.8v-18.8c0-2.2-0.6-4-1.8-5.2
				c-1.2-1.2-2.9-1.8-5-1.8c-2.1,0-3.8,0.6-5,1.8c-1.2,1.2-1.8,2.9-1.8,5.2v18.8h-10.8v-18.8c0-2.2-0.6-4-1.8-5.2
				c-1.2-1.2-2.9-1.8-5-1.8c-2.1,0-3.8,0.6-5,1.8c-1.2,1.2-1.8,2.9-1.8,5.2v18.8h-10.8v-34.6H555.3z"/>
			<path class="st12" d="M616.3,365.7c0-3.1,1.3-5.6,4-7.7c2.7-2.1,6.3-3.1,10.8-3.1c4.5,0,8.2,1,11,3c2.8,2,4.3,4.8,4.4,8.3h-11.1
				c-0.1-1.2-0.5-2-1.3-2.4c-0.7-0.4-1.8-0.6-3.2-0.6c-2.8,0-4.2,0.8-4.2,2.5c0,1.5,1.7,2.6,5.2,3.2c3.5,0.6,6.7,1.5,9.6,2.7
				c1.5,0.6,2.7,1.5,3.7,2.9c1,1.3,1.5,3,1.5,4.9c0,3.2-1.4,5.9-4.2,7.9c-2.8,2-6.4,3.1-10.7,3.1c-4.3,0-7.9-1-10.8-2.9
				c-2.9-1.9-4.4-4.8-4.7-8.5h11.1c0.3,2.1,1.8,3.2,4.6,3.2c1.3,0,2.3-0.3,3.1-0.9c0.8-0.6,1.2-1.3,1.2-2.2c0-0.9-0.7-1.6-2.1-2.2
				c-1.4-0.5-3-1-5-1.4c-1.9-0.4-3.9-0.8-5.9-1.4c-2-0.6-3.6-1.5-5-2.9C617,369.8,616.3,368,616.3,365.7z"/>
			<path class="st12" d="M675.1,380.9h3.9v9h-5.5c-4,0-7-0.9-9.2-2.6c-2.2-1.7-3.3-4.7-3.3-8.8v-14.4h-3.3v-8.8h3.3v-8.4h10.8v8.4
				h7.1v8.8h-7.1v14.4C671.8,380.1,672.9,380.9,675.1,380.9z"/>
			<path class="st12" d="M707.7,390.4c-5.1,0-9.4-1.6-12.7-4.9c-3.3-3.2-4.9-7.5-4.9-12.9c0-5.4,1.6-9.6,4.9-12.8
				c3.3-3.2,7.5-4.8,12.7-4.8c5.2,0,9.5,1.6,12.9,4.7c3.4,3.1,5.1,7.5,5.1,13.1c0,1.2-0.1,2.3-0.3,3.3h-24.3
				c0.2,1.5,0.9,2.8,2.1,3.7c1.2,1,2.5,1.5,3.8,1.5c1.4,0,2.4-0.1,3.1-0.4c0.7-0.3,1.2-0.5,1.5-0.8c0.3-0.3,0.7-0.7,1.2-1.3h11.7
				c-1,3.5-3,6.3-6.1,8.4C715.5,389.3,711.9,390.4,707.7,390.4z M712.4,365.5c-1.3-1-2.8-1.5-4.5-1.5c-1.7,0-3.2,0.5-4.4,1.5
				c-1.2,1-1.9,2.3-2.2,3.9h13.2C714.3,367.9,713.6,366.5,712.4,365.5z"/>
			<path class="st12" d="M749.9,355.3v6.4c2.5-4.5,5.9-6.8,10.1-6.8v10.8h-2.7c-2.5,0-4.4,0.6-5.6,1.7c-1.2,1.2-1.9,3.2-1.9,6.1
				v16.4h-10.8v-34.6H749.9z"/>
			<path class="st12" d="M774.3,385.4c-3.1-3.3-4.7-7.5-4.7-12.7c0-5.2,1.6-9.4,4.7-12.7c3.1-3.3,6.9-5,11.4-5
				c4.5,0,7.9,1.6,10.3,4.9v-15.8h10.8v45.9h-10.8v-5c-2.6,3.6-6.1,5.5-10.5,5.5C781.2,390.4,777.4,388.7,774.3,385.4z M793.7,378.9
				c1.6-1.5,2.3-3.6,2.3-6.3c0-2.7-0.8-4.8-2.3-6.3c-1.6-1.5-3.4-2.2-5.4-2.2c-2,0-3.8,0.7-5.4,2.2c-1.6,1.5-2.3,3.6-2.3,6.3
				c0,2.7,0.8,4.8,2.3,6.3c1.6,1.5,3.4,2.2,5.4,2.2C790.4,381.2,792.2,380.4,793.7,378.9z"/>
			<path class="st12" d="M823.3,385.4c-3.1-3.3-4.7-7.5-4.7-12.7c0-5.2,1.6-9.4,4.7-12.7c3.1-3.3,6.9-5,11.4-5
				c4.5,0,7.9,1.6,10.3,4.9v-4.5h10.8v34.6h-10.8v-5c-2.6,3.6-6.1,5.5-10.5,5.5C830.2,390.4,826.5,388.7,823.3,385.4z M842.8,378.9
				c1.6-1.5,2.3-3.6,2.3-6.3c0-2.7-0.8-4.8-2.3-6.3c-1.6-1.5-3.4-2.2-5.4-2.2c-2,0-3.8,0.7-5.4,2.2c-1.6,1.5-2.3,3.6-2.3,6.3
				c0,2.7,0.8,4.8,2.3,6.3c1.6,1.5,3.4,2.2,5.4,2.2C839.4,381.2,841.2,380.4,842.8,378.9z"/>
			<path class="st12" d="M882.6,355.3v5.1c2.2-3.6,5.8-5.5,10.7-5.5c2.6,0,4.9,0.6,7,1.7c2,1.2,3.6,2.8,4.8,5c1.3-2,3-3.6,5.1-4.9
				c2.1-1.2,4.4-1.8,7-1.8c4.3,0,7.7,1.3,10.3,3.9c2.5,2.6,3.8,6.2,3.8,10.8v20.2h-10.8v-18.8c0-2.2-0.6-4-1.8-5.2
				c-1.2-1.2-2.9-1.8-5-1.8c-2.1,0-3.8,0.6-5,1.8c-1.2,1.2-1.8,2.9-1.8,5.2v18.8h-10.8v-18.8c0-2.2-0.6-4-1.8-5.2
				c-1.2-1.2-2.9-1.8-5-1.8c-2.1,0-3.8,0.6-5,1.8c-1.2,1.2-1.8,2.9-1.8,5.2v18.8h-10.8v-34.6H882.6z"/>
		</g>
	</g>
</g>
<g id="图层_3" class="st0">
	<path class="st16" d="M240.4,120.2c0,66.4-53.8,120.2-120.2,120.2C53.8,240.4,0,186.6,0,120.2C0,53.8,53.8,0,120.2,0
		C186.6,0,240.4,53.8,240.4,120.2z"/>
	<path class="st17" d="M120.2,0c66.4,0,120.2,53.8,120.2,120.2c0,66.4-53.8,120.2-120.2,120.2"/>
</g>
<g id="图层_4">
	<path class="st2" d="M70.9,35.7c0,19.6-15.9,35.5-35.5,35.5c-19.6,0-35.5-15.9-35.5-35.5c0-19.6,15.9-35.5,35.5-35.5
		C55,0.2,70.9,16.1,70.9,35.7z"/>
</g>
</svg>
