<?xml version="1.0" encoding="utf-8"?>
<!-- Generator: Adobe Illustrator 22.0.1, SVG Export Plug-In . SVG Version: 6.00 Build 0)  -->
<svg version="1.1" xmlns="http://www.w3.org/2000/svg" xmlns:xlink="http://www.w3.org/1999/xlink" x="0px" y="0px"
	 viewBox="0 0 462.6 188.9" style="enable-background:new 0 0 462.6 188.9;" xml:space="preserve">
<style type="text/css">
	.st0{display:none;}
	.st1{display:inline;}
	.st2{fill:#7ECB38;}
	.st3{opacity:0.2;fill:#006838;}
	.st4{clip-path:url(#SVGID_2_);fill:url(#SVGID_3_);}
	.st5{clip-path:url(#SVGID_5_);fill:url(#SVGID_6_);}
	.st6{clip-path:url(#SVGID_8_);fill:url(#SVGID_9_);}
	.st7{fill:#F04D4E;}
	.st8{fill:#C61333;}
	.st9{fill:#E91C24;}
	.st10{fill:#DD1934;}
	.st11{fill:#EB4039;}
	.st12{fill:#231F20;}
	.st13{clip-path:url(#SVGID_11_);fill:url(#SVGID_12_);}
	.st14{clip-path:url(#SVGID_14_);fill:url(#SVGID_15_);}
	.st15{clip-path:url(#SVGID_17_);fill:url(#SVGID_18_);}
</style>
<g id="图层_1" class="st0">
	<g class="st1">
		<path class="st2" d="M433.3,170c0,110.2-89.3,199.6-199.6,199.6c-110.2,0-199.5-89.3-199.5-199.6c0-110.2,89.3-199.5,199.5-199.5
			C344-29.5,433.3,59.8,433.3,170z"/>
		<path class="st3" d="M233.8-28.2c110.2,0,199.6,89.3,199.6,199.5c0,110.2-89.3,199.6-199.6,199.6"/>
	</g>
	<g class="st1">
		<g>
			<g>
				<g>
					<defs>
						<polygon id="SVGID_1_" points="52,166.8 52,257.9 51.7,257.9 -5.4,166.8 -16,166.8 -16,270.4 -6.7,270.2 -6.7,180.9 
							-6.4,180.9 49.6,270.4 61.3,270.4 61.3,166.8 						"/>
					</defs>
					<clipPath id="SVGID_2_">
						<use xlink:href="#SVGID_1_"  style="overflow:visible;"/>
					</clipPath>
					
						<linearGradient id="SVGID_3_" gradientUnits="userSpaceOnUse" x1="-724.7701" y1="711.5901" x2="-723.8577" y2="711.5901" gradientTransform="matrix(0 347.5461 347.5461 0 -247287.6875 251966.2656)">
						<stop  offset="0" style="stop-color:#5BB647"/>
						<stop  offset="0.2278" style="stop-color:#5BB647"/>
						<stop  offset="0.4173" style="stop-color:#5BB647"/>
						<stop  offset="0.6053" style="stop-color:#32B04A"/>
						<stop  offset="0.7774" style="stop-color:#0BA84B"/>
						<stop  offset="0.9943" style="stop-color:#11A24B"/>
						<stop  offset="1" style="stop-color:#11A24B"/>
					</linearGradient>
					<rect x="-16" y="166.8" class="st4" width="77.3" height="103.6"/>
				</g>
				<g>
					<defs>
						<polygon id="SVGID_4_" points="91.9,166.8 91.9,270.4 151.6,270.4 155.5,261.7 101.2,261.7 101.2,221.2 147.4,221.2 
							151.4,212.6 101.2,212.6 101.2,175.4 149.4,175.4 153.4,166.8 						"/>
					</defs>
					<clipPath id="SVGID_5_">
						<use xlink:href="#SVGID_4_"  style="overflow:visible;"/>
					</clipPath>
					
						<linearGradient id="SVGID_6_" gradientUnits="userSpaceOnUse" x1="-724.7698" y1="711.8807" x2="-723.8578" y2="711.8807" gradientTransform="matrix(0 347.5461 347.5461 0 -247287.6875 251966.2656)">
						<stop  offset="0" style="stop-color:#5BB647"/>
						<stop  offset="0.2278" style="stop-color:#5BB647"/>
						<stop  offset="0.4173" style="stop-color:#5BB647"/>
						<stop  offset="0.6053" style="stop-color:#32B04A"/>
						<stop  offset="0.7774" style="stop-color:#0BA84B"/>
						<stop  offset="0.9943" style="stop-color:#11A24B"/>
						<stop  offset="1" style="stop-color:#11A24B"/>
					</linearGradient>
					<rect x="91.9" y="166.8" class="st5" width="63.7" height="103.5"/>
				</g>
				<g>
					<defs>
						<path id="SVGID_7_" d="M206.9,260c-4.5-2.6-8.3-6-11.2-10.3c-2.9-4.3-5-9.1-6.4-14.6c-1.3-5.4-2-11-2-16.6
							c0-5.6,0.7-11.2,2-16.6c1.3-5.5,3.5-10.3,6.4-14.6c2.9-4.3,6.6-7.7,11.2-10.3c4.5-2.6,10.1-3.9,16.6-3.9
							c6.4,0,11.9,1.3,16.5,3.9c4.6,2.6,8.3,6,11.3,10.3c2.9,4.3,5,9.1,6.4,14.6c1.3,5.4,2,11,2,16.6c0,5.6-0.7,11.2-2,16.6
							c-1.3,5.4-3.5,10.3-6.4,14.6c-2.9,4.3-6.7,7.7-11.3,10.3c-4.6,2.6-10.1,3.9-16.5,3.9C217,263.9,211.5,262.6,206.9,260
							 M203.7,168.5c-5.7,2.6-10.6,6.2-14.5,11c-3.9,4.7-6.9,10.4-8.9,17.1c-2,6.6-3,14-3,22c0,8,1,15.4,3,22c2,6.6,5,12.3,8.9,17.1
							c3.9,4.7,8.7,8.4,14.5,11c5.7,2.6,12.3,3.9,19.8,3.9c7.5,0,14.1-1.3,19.8-3.9c5.7-2.6,10.6-6.2,14.5-11
							c3.9-4.7,6.9-10.4,8.9-17.1c2-6.6,3-14,3-22c0-8-1-15.4-3-22c-2-6.6-5-12.3-8.9-17.1c-3.9-4.7-8.7-8.4-14.5-11
							c-5.7-2.6-12.3-3.9-19.8-3.9C216,164.7,209.4,166,203.7,168.5"/>
					</defs>
					<clipPath id="SVGID_8_">
						<use xlink:href="#SVGID_7_"  style="overflow:visible;"/>
					</clipPath>
					
						<linearGradient id="SVGID_9_" gradientUnits="userSpaceOnUse" x1="-724.7705" y1="712.1679" x2="-723.8575" y2="712.1679" gradientTransform="matrix(0 347.5461 347.5461 0 -247287.6875 251966.2656)">
						<stop  offset="0" style="stop-color:#5BB647"/>
						<stop  offset="0.2278" style="stop-color:#5BB647"/>
						<stop  offset="0.4173" style="stop-color:#5BB647"/>
						<stop  offset="0.6053" style="stop-color:#32B04A"/>
						<stop  offset="0.7774" style="stop-color:#0BA84B"/>
						<stop  offset="0.9943" style="stop-color:#11A24B"/>
						<stop  offset="1" style="stop-color:#11A24B"/>
					</linearGradient>
					<rect x="177.3" y="164.7" class="st6" width="92.4" height="107.8"/>
				</g>
				<path class="st7" d="M179.6,136.7"/>
			</g>
			<g>
				<g>
					<g>
						<polygon class="st8" points="302.3,194.5 330.1,167.9 330.1,199.8 						"/>
						<polygon class="st8" points="392.5,167.9 421.6,194.1 386.2,196 						"/>
						<polygon class="st9" points="421.6,194.1 302.4,194.3 361.1,252.7 						"/>
						<polyline class="st10" points="361.5,194.2 361,272.5 302.3,223.2 302.3,194.5 						"/>
					</g>
					<polygon class="st10" points="392.5,167.9 392.5,194.4 361.5,194.2 					"/>
					<path class="st11" d="M331.7,166.3"/>
					<polygon class="st11" points="330.1,167.9 361.5,194.2 302.3,194.5 					"/>
				</g>
				<polygon class="st11" points="421.6,194.1 421.6,223.4 361,272.5 361,236.8 				"/>
			</g>
		</g>
		<g>
			<path class="st12" d="M12,338.1l-2.5-7.3h-16l-2.5,7.3h-11.5l15.4-43.6H8.2l15.4,43.6H12z M-3.7,322.8H6.8l-5.3-15.5L-3.7,322.8z
				"/>
			<path class="st12" d="M44.6,303.5v5.1c2.2-3.6,5.8-5.5,10.7-5.5c2.6,0,4.9,0.6,7,1.7c2,1.2,3.6,2.8,4.8,5c1.3-2,3-3.6,5.1-4.9
				c2.1-1.2,4.4-1.8,7-1.8c4.3,0,7.7,1.3,10.3,3.9c2.5,2.6,3.8,6.2,3.8,10.8v20.2H82.4v-18.8c0-2.2-0.6-4-1.8-5.2
				c-1.2-1.2-2.9-1.8-5-1.8c-2.1,0-3.8,0.6-5,1.8c-1.2,1.2-1.8,2.9-1.8,5.2v18.8H58.1v-18.8c0-2.2-0.6-4-1.8-5.2
				c-1.2-1.2-2.9-1.8-5-1.8c-2.1,0-3.8,0.6-5,1.8c-1.2,1.2-1.8,2.9-1.8,5.2v18.8H33.8v-34.6H44.6z"/>
			<path class="st12" d="M105.6,314c0-3.1,1.3-5.6,4-7.7c2.7-2.1,6.3-3.1,10.8-3.1c4.5,0,8.2,1,11,3c2.8,2,4.3,4.8,4.4,8.3h-11.1
				c-0.1-1.2-0.5-2-1.3-2.4c-0.7-0.4-1.8-0.6-3.2-0.6c-2.8,0-4.2,0.8-4.2,2.5c0,1.5,1.7,2.6,5.2,3.2c3.5,0.6,6.7,1.5,9.6,2.7
				c1.5,0.6,2.7,1.5,3.7,2.9c1,1.3,1.5,3,1.5,4.9c0,3.2-1.4,5.9-4.2,7.9c-2.8,2-6.4,3.1-10.7,3.1c-4.3,0-7.9-1-10.8-2.9
				c-2.9-1.9-4.4-4.8-4.7-8.5h11.1c0.3,2.1,1.8,3.2,4.6,3.2c1.3,0,2.3-0.3,3.1-0.9c0.8-0.6,1.2-1.3,1.2-2.2s-0.7-1.6-2.1-2.2
				c-1.4-0.5-3-1-5-1.4c-1.9-0.4-3.9-0.8-5.9-1.4c-2-0.6-3.6-1.5-5-2.9C106.2,318,105.6,316.2,105.6,314z"/>
			<path class="st12" d="M164.4,329.1h3.9v9h-5.5c-4,0-7-0.9-9.2-2.6c-2.2-1.7-3.3-4.7-3.3-8.8v-14.4H147v-8.8h3.3v-8.4h10.8v8.4
				h7.1v8.8h-7.1v14.4C161.1,328.3,162.2,329.1,164.4,329.1z"/>
			<path class="st12" d="M197,338.6c-5.1,0-9.4-1.6-12.7-4.9c-3.3-3.2-4.9-7.5-4.9-12.9c0-5.4,1.6-9.6,4.9-12.8
				c3.3-3.2,7.5-4.8,12.7-4.8c5.2,0,9.5,1.6,12.9,4.7c3.4,3.1,5.1,7.5,5.1,13.1c0,1.2-0.1,2.3-0.3,3.3h-24.3
				c0.2,1.5,0.9,2.8,2.1,3.7c1.2,1,2.5,1.5,3.8,1.5c1.4,0,2.4-0.1,3.1-0.4c0.7-0.3,1.2-0.5,1.5-0.8c0.3-0.3,0.7-0.7,1.2-1.3h11.7
				c-1,3.5-3,6.3-6.1,8.4C204.8,337.5,201.2,338.6,197,338.6z M201.6,313.7c-1.3-1-2.8-1.5-4.5-1.5c-1.7,0-3.2,0.5-4.4,1.5
				c-1.2,1-1.9,2.3-2.2,3.9h13.2C203.6,316.1,202.9,314.8,201.6,313.7z"/>
			<path class="st12" d="M239.2,303.5v6.4c2.5-4.5,5.9-6.8,10.1-6.8V314h-2.7c-2.5,0-4.4,0.6-5.6,1.7c-1.2,1.2-1.9,3.2-1.9,6.1v16.4
				h-10.8v-34.6H239.2z"/>
			<path class="st12" d="M263.6,333.6c-3.1-3.3-4.7-7.5-4.7-12.7c0-5.2,1.6-9.4,4.7-12.7c3.1-3.3,6.9-5,11.4-5
				c4.5,0,7.9,1.6,10.3,4.9v-15.8h10.8v45.9h-10.8v-5c-2.6,3.6-6.1,5.5-10.5,5.5C270.5,338.6,266.7,336.9,263.6,333.6z M283,327.2
				c1.6-1.5,2.3-3.6,2.3-6.3c0-2.7-0.8-4.8-2.3-6.3c-1.6-1.5-3.4-2.2-5.4-2.2c-2,0-3.8,0.7-5.4,2.2c-1.6,1.5-2.3,3.6-2.3,6.3
				c0,2.7,0.8,4.8,2.3,6.3c1.6,1.5,3.4,2.2,5.4,2.2C279.7,329.4,281.5,328.6,283,327.2z"/>
			<path class="st12" d="M312.6,333.6c-3.1-3.3-4.7-7.5-4.7-12.7c0-5.2,1.6-9.4,4.7-12.7c3.1-3.3,6.9-5,11.4-5
				c4.5,0,7.9,1.6,10.3,4.9v-4.5h10.8v34.6h-10.8v-5c-2.6,3.6-6.1,5.5-10.5,5.5C319.5,338.6,315.7,336.9,312.6,333.6z M332,327.2
				c1.6-1.5,2.3-3.6,2.3-6.3c0-2.7-0.8-4.8-2.3-6.3c-1.6-1.5-3.4-2.2-5.4-2.2c-2,0-3.8,0.7-5.4,2.2c-1.6,1.5-2.3,3.6-2.3,6.3
				c0,2.7,0.8,4.8,2.3,6.3c1.6,1.5,3.4,2.2,5.4,2.2C328.7,329.4,330.5,328.6,332,327.2z"/>
			<path class="st12" d="M371.9,303.5v5.1c2.2-3.6,5.8-5.5,10.7-5.5c2.6,0,4.9,0.6,7,1.7c2,1.2,3.6,2.8,4.8,5c1.3-2,3-3.6,5.1-4.9
				c2.1-1.2,4.4-1.8,7-1.8c4.3,0,7.7,1.3,10.3,3.9c2.5,2.6,3.8,6.2,3.8,10.8v20.2h-10.8v-18.8c0-2.2-0.6-4-1.8-5.2
				c-1.2-1.2-2.9-1.8-5-1.8c-2.1,0-3.8,0.6-5,1.8c-1.2,1.2-1.8,2.9-1.8,5.2v18.8h-10.8v-18.8c0-2.2-0.6-4-1.8-5.2
				c-1.2-1.2-2.9-1.8-5-1.8c-2.1,0-3.8,0.6-5,1.8c-1.2,1.2-1.8,2.9-1.8,5.2v18.8H361v-34.6H371.9z"/>
		</g>
	</g>
</g>
<g id="图层_2">
	<g>
		<g>
			<g>
				<g>
					<defs>
						<polygon id="SVGID_10_" points="83,9.8 83,100.9 82.7,100.9 25.6,9.8 15,9.8 15,113.4 24.3,113.2 24.3,23.9 24.6,23.9 
							80.6,113.4 92.3,113.4 92.3,9.8 						"/>
					</defs>
					<clipPath id="SVGID_11_">
						<use xlink:href="#SVGID_10_"  style="overflow:visible;"/>
					</clipPath>
					
						<linearGradient id="SVGID_12_" gradientUnits="userSpaceOnUse" x1="-725.2219" y1="711.6793" x2="-724.3094" y2="711.6793" gradientTransform="matrix(0 347.5461 347.5461 0 -247287.6875 251966.2656)">
						<stop  offset="0" style="stop-color:#5BB647"/>
						<stop  offset="0.2278" style="stop-color:#5BB647"/>
						<stop  offset="0.4173" style="stop-color:#5BB647"/>
						<stop  offset="0.6053" style="stop-color:#32B04A"/>
						<stop  offset="0.7774" style="stop-color:#0BA84B"/>
						<stop  offset="0.9943" style="stop-color:#11A24B"/>
						<stop  offset="1" style="stop-color:#11A24B"/>
					</linearGradient>
					<rect x="15" y="9.8" class="st13" width="77.3" height="103.6"/>
				</g>
				<g>
					<defs>
						<polygon id="SVGID_13_" points="122.9,9.8 122.9,113.4 182.6,113.4 186.5,104.7 132.2,104.7 132.2,64.2 178.4,64.2 
							182.4,55.6 132.2,55.6 132.2,18.4 180.4,18.4 184.4,9.8 						"/>
					</defs>
					<clipPath id="SVGID_14_">
						<use xlink:href="#SVGID_13_"  style="overflow:visible;"/>
					</clipPath>
					
						<linearGradient id="SVGID_15_" gradientUnits="userSpaceOnUse" x1="-725.2216" y1="711.9699" x2="-724.3096" y2="711.9699" gradientTransform="matrix(0 347.5461 347.5461 0 -247287.6875 251966.2656)">
						<stop  offset="0" style="stop-color:#5BB647"/>
						<stop  offset="0.2278" style="stop-color:#5BB647"/>
						<stop  offset="0.4173" style="stop-color:#5BB647"/>
						<stop  offset="0.6053" style="stop-color:#32B04A"/>
						<stop  offset="0.7774" style="stop-color:#0BA84B"/>
						<stop  offset="0.9943" style="stop-color:#11A24B"/>
						<stop  offset="1" style="stop-color:#11A24B"/>
					</linearGradient>
					<rect x="122.9" y="9.8" class="st14" width="63.7" height="103.5"/>
				</g>
				<g>
					<defs>
						<path id="SVGID_16_" d="M237.9,103c-4.5-2.6-8.3-6-11.2-10.3c-2.9-4.3-5-9.1-6.4-14.6c-1.3-5.4-2-11-2-16.6
							c0-5.6,0.7-11.2,2-16.6c1.3-5.5,3.5-10.3,6.4-14.6c2.9-4.3,6.6-7.7,11.2-10.3c4.5-2.6,10.1-3.9,16.6-3.9
							c6.4,0,11.9,1.3,16.5,3.9c4.6,2.6,8.3,6,11.3,10.3c2.9,4.3,5,9.1,6.4,14.6c1.3,5.4,2,11,2,16.6c0,5.6-0.7,11.2-2,16.6
							c-1.3,5.4-3.5,10.3-6.4,14.6c-2.9,4.3-6.7,7.7-11.3,10.3c-4.6,2.6-10.1,3.9-16.5,3.9C248,106.9,242.5,105.6,237.9,103
							 M234.7,11.5c-5.7,2.6-10.6,6.2-14.5,11c-3.9,4.7-6.9,10.4-8.9,17.1c-2,6.6-3,14-3,22c0,8,1,15.4,3,22c2,6.6,5,12.3,8.9,17.1
							c3.9,4.7,8.7,8.4,14.5,11c5.7,2.6,12.3,3.9,19.8,3.9c7.5,0,14.1-1.3,19.8-3.9c5.7-2.6,10.6-6.2,14.5-11
							c3.9-4.7,6.9-10.4,8.9-17.1c2-6.6,3-14,3-22c0-8-1-15.4-3-22c-2-6.6-5-12.3-8.9-17.1c-3.9-4.7-8.7-8.4-14.5-11
							c-5.7-2.6-12.3-3.9-19.8-3.9C247,7.7,240.4,9,234.7,11.5"/>
					</defs>
					<clipPath id="SVGID_17_">
						<use xlink:href="#SVGID_16_"  style="overflow:visible;"/>
					</clipPath>
					
						<linearGradient id="SVGID_18_" gradientUnits="userSpaceOnUse" x1="-725.2222" y1="712.2571" x2="-724.3092" y2="712.2571" gradientTransform="matrix(0 347.5461 347.5461 0 -247287.6875 251966.2656)">
						<stop  offset="0" style="stop-color:#5BB647"/>
						<stop  offset="0.2278" style="stop-color:#5BB647"/>
						<stop  offset="0.4173" style="stop-color:#5BB647"/>
						<stop  offset="0.6053" style="stop-color:#32B04A"/>
						<stop  offset="0.7774" style="stop-color:#0BA84B"/>
						<stop  offset="0.9943" style="stop-color:#11A24B"/>
						<stop  offset="1" style="stop-color:#11A24B"/>
					</linearGradient>
					<rect x="208.3" y="7.7" class="st15" width="92.4" height="107.8"/>
				</g>
				<path class="st7" d="M210.6-20.3"/>
			</g>
			<g>
				<g>
					<g>
						<polygon class="st8" points="333.3,37.5 361.1,10.9 361.1,42.8 						"/>
						<polygon class="st8" points="423.5,10.9 452.6,37.1 417.2,39 						"/>
						<polygon class="st9" points="452.6,37.1 333.4,37.3 392.1,95.7 						"/>
						<polyline class="st10" points="392.5,37.2 392,115.5 333.3,66.2 333.3,37.5 						"/>
					</g>
					<polygon class="st10" points="423.5,10.9 423.5,37.4 392.5,37.2 					"/>
					<path class="st11" d="M362.7,9.3"/>
					<polygon class="st11" points="361.1,10.9 392.5,37.2 333.3,37.5 					"/>
				</g>
				<polygon class="st11" points="452.6,37.1 452.6,66.4 392,115.5 392,79.8 				"/>
			</g>
		</g>
		<g>
			<path class="st12" d="M43,181.1l-2.5-7.3h-16l-2.5,7.3H10.6l15.4-43.6h13.2l15.4,43.6H43z M27.3,165.8h10.5l-5.3-15.5L27.3,165.8
				z"/>
			<path class="st12" d="M75.6,146.5v5.1c2.2-3.6,5.8-5.5,10.7-5.5c2.6,0,4.9,0.6,7,1.7c2,1.2,3.6,2.8,4.8,5c1.3-2,3-3.6,5.1-4.9
				c2.1-1.2,4.4-1.8,7-1.8c4.3,0,7.7,1.3,10.3,3.9c2.5,2.6,3.8,6.2,3.8,10.8v20.2h-10.8v-18.8c0-2.2-0.6-4-1.8-5.2
				c-1.2-1.2-2.9-1.8-5-1.8c-2.1,0-3.8,0.6-5,1.8c-1.2,1.2-1.8,2.9-1.8,5.2v18.8H89.1v-18.8c0-2.2-0.6-4-1.8-5.2
				c-1.2-1.2-2.9-1.8-5-1.8c-2.1,0-3.8,0.6-5,1.8c-1.2,1.2-1.8,2.9-1.8,5.2v18.8H64.8v-34.6H75.6z"/>
			<path class="st12" d="M136.6,157c0-3.1,1.3-5.6,4-7.7c2.7-2.1,6.3-3.1,10.8-3.1c4.5,0,8.2,1,11,3c2.8,2,4.3,4.8,4.4,8.3h-11.1
				c-0.1-1.2-0.5-2-1.3-2.4c-0.7-0.4-1.8-0.6-3.2-0.6c-2.8,0-4.2,0.8-4.2,2.5c0,1.5,1.7,2.6,5.2,3.2c3.5,0.6,6.7,1.5,9.6,2.7
				c1.5,0.6,2.7,1.5,3.7,2.9c1,1.3,1.5,3,1.5,4.9c0,3.2-1.4,5.9-4.2,7.9c-2.8,2-6.4,3.1-10.7,3.1c-4.3,0-7.9-1-10.8-2.9
				c-2.9-1.9-4.4-4.8-4.7-8.5h11.1c0.3,2.1,1.8,3.2,4.6,3.2c1.3,0,2.3-0.3,3.1-0.9c0.8-0.6,1.2-1.3,1.2-2.2s-0.7-1.6-2.1-2.2
				c-1.4-0.5-3-1-5-1.4c-1.9-0.4-3.9-0.8-5.9-1.4c-2-0.6-3.6-1.5-5-2.9C137.2,161,136.6,159.2,136.6,157z"/>
			<path class="st12" d="M195.4,172.1h3.9v9h-5.5c-4,0-7-0.9-9.2-2.6c-2.2-1.7-3.3-4.7-3.3-8.8v-14.4H178v-8.8h3.3v-8.4h10.8v8.4
				h7.1v8.8h-7.1v14.4C192.1,171.3,193.2,172.1,195.4,172.1z"/>
			<path class="st12" d="M228,181.6c-5.1,0-9.4-1.6-12.7-4.9c-3.3-3.2-4.9-7.5-4.9-12.9c0-5.4,1.6-9.6,4.9-12.8
				c3.3-3.2,7.5-4.8,12.7-4.8c5.2,0,9.5,1.6,12.9,4.7c3.4,3.1,5.1,7.5,5.1,13.1c0,1.2-0.1,2.3-0.3,3.3h-24.3
				c0.2,1.5,0.9,2.8,2.1,3.7c1.2,1,2.5,1.5,3.8,1.5c1.4,0,2.4-0.1,3.1-0.4c0.7-0.3,1.2-0.5,1.5-0.8c0.3-0.3,0.7-0.7,1.2-1.3h11.7
				c-1,3.5-3,6.3-6.1,8.4C235.8,180.5,232.2,181.6,228,181.6z M232.6,156.7c-1.3-1-2.8-1.5-4.5-1.5c-1.7,0-3.2,0.5-4.4,1.5
				c-1.2,1-1.9,2.3-2.2,3.9h13.2C234.6,159.1,233.9,157.8,232.6,156.7z"/>
			<path class="st12" d="M270.2,146.5v6.4c2.5-4.5,5.9-6.8,10.1-6.8V157h-2.7c-2.5,0-4.4,0.6-5.6,1.7c-1.2,1.2-1.9,3.2-1.9,6.1v16.4
				h-10.8v-34.6H270.2z"/>
			<path class="st12" d="M294.6,176.6c-3.1-3.3-4.7-7.5-4.7-12.7c0-5.2,1.6-9.4,4.7-12.7c3.1-3.3,6.9-5,11.4-5
				c4.5,0,7.9,1.6,10.3,4.9v-15.8h10.8v45.9h-10.8v-5c-2.6,3.6-6.1,5.5-10.5,5.5C301.5,181.6,297.7,179.9,294.6,176.6z M314,170.2
				c1.6-1.5,2.3-3.6,2.3-6.3c0-2.7-0.8-4.8-2.3-6.3c-1.6-1.5-3.4-2.2-5.4-2.2c-2,0-3.8,0.7-5.4,2.2c-1.6,1.5-2.3,3.6-2.3,6.3
				c0,2.7,0.8,4.8,2.3,6.3c1.6,1.5,3.4,2.2,5.4,2.2C310.7,172.4,312.5,171.6,314,170.2z"/>
			<path class="st12" d="M343.6,176.6c-3.1-3.3-4.7-7.5-4.7-12.7c0-5.2,1.6-9.4,4.7-12.7c3.1-3.3,6.9-5,11.4-5
				c4.5,0,7.9,1.6,10.3,4.9v-4.5h10.8v34.6h-10.8v-5c-2.6,3.6-6.1,5.5-10.5,5.5C350.5,181.6,346.7,179.9,343.6,176.6z M363,170.2
				c1.6-1.5,2.3-3.6,2.3-6.3c0-2.7-0.8-4.8-2.3-6.3c-1.6-1.5-3.4-2.2-5.4-2.2c-2,0-3.8,0.7-5.4,2.2c-1.6,1.5-2.3,3.6-2.3,6.3
				c0,2.7,0.8,4.8,2.3,6.3c1.6,1.5,3.4,2.2,5.4,2.2C359.7,172.4,361.5,171.6,363,170.2z"/>
			<path class="st12" d="M402.9,146.5v5.1c2.2-3.6,5.8-5.5,10.7-5.5c2.6,0,4.9,0.6,7,1.7c2,1.2,3.6,2.8,4.8,5c1.3-2,3-3.6,5.1-4.9
				c2.1-1.2,4.4-1.8,7-1.8c4.3,0,7.7,1.3,10.3,3.9c2.5,2.6,3.8,6.2,3.8,10.8v20.2h-10.8v-18.8c0-2.2-0.6-4-1.8-5.2
				c-1.2-1.2-2.9-1.8-5-1.8c-2.1,0-3.8,0.6-5,1.8c-1.2,1.2-1.8,2.9-1.8,5.2v18.8h-10.8v-18.8c0-2.2-0.6-4-1.8-5.2
				c-1.2-1.2-2.9-1.8-5-1.8c-2.1,0-3.8,0.6-5,1.8c-1.2,1.2-1.8,2.9-1.8,5.2v18.8H392v-34.6H402.9z"/>
		</g>
	</g>
</g>
</svg>
