<?xml version="1.0" encoding="utf-8"?>
<!-- Generator: Adobe Illustrator 22.0.1, SVG Export Plug-In . SVG Version: 6.00 Build 0)  -->
<svg version="1.1" id="图层_1" xmlns="http://www.w3.org/2000/svg" xmlns:xlink="http://www.w3.org/1999/xlink" x="0px" y="0px"
	 viewBox="0 0 621.1 266.4" style="enable-background:new 0 0 621.1 266.4;" xml:space="preserve">
<style type="text/css">
	.st0{clip-path:url(#SVGID_3_);}
	.st1{fill:url(#SVGID_4_);}
	.st2{clip-path:url(#SVGID_7_);}
	.st3{fill:url(#SVGID_8_);}
	.st4{clip-path:url(#SVGID_11_);}
	.st5{fill:url(#SVGID_12_);}
	.st6{fill:url(#SVGID_13_);}
	.st7{fill:url(#SVGID_14_);}
	.st8{fill:url(#SVGID_15_);}
	.st9{fill:url(#SVGID_16_);}
	.st10{fill:url(#SVGID_17_);}
	.st11{fill:url(#SVGID_18_);}
	.st12{fill:url(#SVGID_19_);}
	.st13{fill:url(#SVGID_20_);}
	.st14{fill:url(#SVGID_21_);}
	.st15{fill:url(#SVGID_22_);}
	.st16{fill:url(#SVGID_23_);}
	.st17{fill:url(#SVGID_24_);}
	.st18{fill:url(#SVGID_25_);}
	.st19{fill:url(#SVGID_26_);}
	.st20{fill:url(#SVGID_27_);}
</style>
<title>NEO-LOGO</title>
<g id="图层_1_1_">
	<g>
		<defs>
			<polygon id="SVGID_1_" points="285.7,91.2 297.9,91.2 363.8,196.3 364.1,196.3 364.1,91.2 374.9,91.1 374.9,210.7 361.3,210.7 
				296.7,107.4 296.4,107.4 296.4,210.5 285.6,210.7 			"/>
		</defs>
		<linearGradient id="SVGID_2_" gradientUnits="userSpaceOnUse" x1="285.6498" y1="150.8834" x2="374.8649" y2="150.8834">
			<stop  offset="0" style="stop-color:#BEEB00"/>
			<stop  offset="0.23" style="stop-color:#58BF00"/>
			<stop  offset="0.42" style="stop-color:#58BF00"/>
			<stop  offset="0.61" style="stop-color:#29B800"/>
			<stop  offset="0.78" style="stop-color:#00AE1D"/>
			<stop  offset="0.99" style="stop-color:#00A62C"/>
		</linearGradient>
		<use xlink:href="#SVGID_1_"  style="overflow:visible;fill:url(#SVGID_2_);"/>
		<clipPath id="SVGID_3_">
			<use xlink:href="#SVGID_1_"  style="overflow:visible;"/>
		</clipPath>
		<g class="st0">
			
				<linearGradient id="SVGID_4_" gradientUnits="userSpaceOnUse" x1="242.6682" y1="600.5229" x2="242.6682" y2="234.672" gradientTransform="matrix(1 0 0 -1 0 586)">
				<stop  offset="0" style="stop-color:#BEEB00"/>
				<stop  offset="0.23" style="stop-color:#58BF00"/>
				<stop  offset="0.42" style="stop-color:#58BF00"/>
				<stop  offset="0.61" style="stop-color:#29B800"/>
				<stop  offset="0.78" style="stop-color:#00AE1D"/>
				<stop  offset="0.99" style="stop-color:#00A62C"/>
			</linearGradient>
			<rect x="-247.3" y="-14" class="st1" width="979.9" height="365.9"/>
		</g>
	</g>
	<g>
		<defs>
			<polygon id="SVGID_5_" points="410.1,210.7 410.1,91.2 481.1,91.2 476.6,101.1 420.9,101.1 420.9,144 478.8,144 474.3,153.9 
				420.9,153.9 420.9,200.7 483.6,200.7 479.1,210.7 			"/>
		</defs>
		<linearGradient id="SVGID_6_" gradientUnits="userSpaceOnUse" x1="410.1194" y1="150.9194" x2="483.6103" y2="150.9194">
			<stop  offset="0" style="stop-color:#BEEB00"/>
			<stop  offset="0.23" style="stop-color:#58BF00"/>
			<stop  offset="0.42" style="stop-color:#58BF00"/>
			<stop  offset="0.61" style="stop-color:#29B800"/>
			<stop  offset="0.78" style="stop-color:#00AE1D"/>
			<stop  offset="0.99" style="stop-color:#00A62C"/>
		</linearGradient>
		<use xlink:href="#SVGID_5_"  style="overflow:visible;fill:url(#SVGID_6_);"/>
		<clipPath id="SVGID_7_">
			<use xlink:href="#SVGID_5_"  style="overflow:visible;"/>
		</clipPath>
		<g class="st2">
			
				<linearGradient id="SVGID_8_" gradientUnits="userSpaceOnUse" x1="242.6682" y1="600.5229" x2="242.6682" y2="234.672" gradientTransform="matrix(1 0 0 -1 0 586)">
				<stop  offset="0" style="stop-color:#BEEB00"/>
				<stop  offset="0.23" style="stop-color:#58BF00"/>
				<stop  offset="0.42" style="stop-color:#58BF00"/>
				<stop  offset="0.61" style="stop-color:#29B800"/>
				<stop  offset="0.78" style="stop-color:#00AE1D"/>
				<stop  offset="0.99" style="stop-color:#00A62C"/>
			</linearGradient>
			<rect x="-247.3" y="-14" class="st3" width="979.9" height="365.9"/>
		</g>
	</g>
	<g>
		<defs>
			<path id="SVGID_9_" d="M615.4,150.9c0,9.3-1.2,17.7-3.5,25.4c-2.3,7.7-5.7,14.2-10.3,19.7c-4.5,5.5-10.2,9.8-16.7,12.7
				c-6.6,3-14.2,4.5-22.8,4.5c-8.6,0-16.2-1.5-22.8-4.5c-6.5-2.9-12.2-7.2-16.7-12.7c-4.5-5.5-7.9-12-10.3-19.7
				c-2.3-7.7-3.5-16.1-3.5-25.4c0-9.3,1.2-17.7,3.5-25.4c2.3-7.7,5.7-14.2,10.3-19.7c4.5-5.5,10.2-9.8,16.7-12.7
				c6.6-3,14.2-4.5,22.8-4.5c8.6,0,16.2,1.5,22.8,4.5c6.5,2.9,12.2,7.2,16.7,12.7c4.5,5.5,7.9,12,10.3,19.7S615.4,141.7,615.4,150.9
				z M520.4,150.9c0,6.5,0.8,12.9,2.3,19.2c1.4,6,3.9,11.7,7.4,16.8c3.3,4.9,7.8,8.9,12.9,11.8c5.2,3,11.6,4.5,19.1,4.5
				c7.4,0,13.7-1.5,19-4.5c5.2-2.9,9.6-6.9,13-11.8c3.5-5.1,5.9-10.8,7.4-16.8c3.1-12.6,3.1-25.8,0-38.4c-1.4-6-3.9-11.7-7.4-16.8
				c-3.4-4.9-7.8-9-13-11.8c-5.3-3-11.6-4.5-19-4.5c-7.5,0-13.9,1.5-19.1,4.5c-5.2,2.9-9.6,7-12.9,11.8c-3.5,5.1-5.9,10.8-7.4,16.8
				C521.1,138,520.3,144.5,520.4,150.9L520.4,150.9z"/>
		</defs>
		<linearGradient id="SVGID_10_" gradientUnits="userSpaceOnUse" x1="508.7844" y1="150.9217" x2="615.3633" y2="150.9217">
			<stop  offset="0" style="stop-color:#BEEB00"/>
			<stop  offset="0.23" style="stop-color:#58BF00"/>
			<stop  offset="0.42" style="stop-color:#58BF00"/>
			<stop  offset="0.61" style="stop-color:#29B800"/>
			<stop  offset="0.78" style="stop-color:#00AE1D"/>
			<stop  offset="0.99" style="stop-color:#00A62C"/>
		</linearGradient>
		<use xlink:href="#SVGID_9_"  style="overflow:visible;fill:url(#SVGID_10_);"/>
		<clipPath id="SVGID_11_">
			<use xlink:href="#SVGID_9_"  style="overflow:visible;"/>
		</clipPath>
		<g class="st4">
			
				<linearGradient id="SVGID_12_" gradientUnits="userSpaceOnUse" x1="242.6682" y1="600.5229" x2="242.6682" y2="234.672" gradientTransform="matrix(1 0 0 -1 0 586)">
				<stop  offset="0" style="stop-color:#BEEB00"/>
				<stop  offset="0.23" style="stop-color:#58BF00"/>
				<stop  offset="0.42" style="stop-color:#58BF00"/>
				<stop  offset="0.61" style="stop-color:#29B800"/>
				<stop  offset="0.78" style="stop-color:#00AE1D"/>
				<stop  offset="0.99" style="stop-color:#00A62C"/>
			</linearGradient>
			<rect x="-247.3" y="-14" class="st5" width="979.9" height="365.9"/>
		</g>
	</g>
	
		<linearGradient id="SVGID_13_" gradientUnits="userSpaceOnUse" x1="284.9291" y1="347.4032" x2="295.5598" y2="347.4032" gradientTransform="matrix(1 0 0 -1 0 586)">
		<stop  offset="0" style="stop-color:#BEEB00"/>
		<stop  offset="0.23" style="stop-color:#58BF00"/>
		<stop  offset="0.42" style="stop-color:#58BF00"/>
		<stop  offset="0.61" style="stop-color:#29B800"/>
		<stop  offset="0.78" style="stop-color:#00AE1D"/>
		<stop  offset="0.99" style="stop-color:#00A62C"/>
	</linearGradient>
	<path class="st6" d="M293.3,233.5c-0.2-0.5-0.6-1-1.1-1.3c-0.5-0.3-1.1-0.5-1.7-0.5c-0.3,0-0.7,0.1-1,0.2c-0.3,0.1-0.6,0.3-0.9,0.5
		c-0.3,0.2-0.5,0.5-0.6,0.8c-0.2,0.3-0.2,0.6-0.2,1c0,0.6,0.2,1.1,0.6,1.5c0.4,0.4,0.9,0.7,1.4,0.9c0.6,0.3,1.2,0.5,1.9,0.7
		c0.7,0.2,1.3,0.5,1.9,0.9c0.6,0.4,1.1,0.8,1.4,1.4c0.4,0.7,0.6,1.5,0.6,2.3c0,0.7-0.1,1.4-0.4,2c-0.3,0.6-0.6,1.1-1.1,1.6
		c-0.5,0.4-1,0.8-1.6,1c-0.6,0.2-1.3,0.4-2,0.4c-1.3,0-2.5-0.4-3.5-1.1c-1-0.8-1.7-1.9-2-3.1l1.5-0.5c0.3,0.9,0.7,1.7,1.4,2.3
		c0.7,0.6,1.6,0.9,2.6,0.9c1.9,0,3.6-1.5,3.6-3.5c0,0,0-0.1,0-0.1c0-0.4-0.1-0.9-0.3-1.2c-0.2-0.3-0.4-0.6-0.7-0.9
		c-0.3-0.2-0.6-0.4-1-0.6c-0.4-0.2-0.8-0.3-1.2-0.5c-0.5-0.2-1.1-0.5-1.7-0.7c-0.5-0.2-1-0.5-1.5-0.8c-0.4-0.3-0.8-0.7-1.1-1.2
		c-0.3-0.5-0.4-1.1-0.4-1.7c0-0.6,0.1-1.1,0.4-1.6c0.5-1,1.3-1.7,2.3-2.1c0.5-0.2,1.1-0.3,1.7-0.3c0.8,0,1.7,0.3,2.4,0.7
		c0.7,0.4,1.3,1.1,1.7,1.8L293.3,233.5z"/>
	
		<linearGradient id="SVGID_14_" gradientUnits="userSpaceOnUse" x1="305.2072" y1="347.5704" x2="324.9178" y2="347.5704" gradientTransform="matrix(1 0 0 -1 0 586)">
		<stop  offset="0" style="stop-color:#BEEB00"/>
		<stop  offset="0.23" style="stop-color:#58BF00"/>
		<stop  offset="0.42" style="stop-color:#58BF00"/>
		<stop  offset="0.61" style="stop-color:#29B800"/>
		<stop  offset="0.78" style="stop-color:#00AE1D"/>
		<stop  offset="0.99" style="stop-color:#00A62C"/>
	</linearGradient>
	<path class="st7" d="M306.8,232.6L306.8,232.6c0.4-0.7,1-1.3,1.7-1.7c0.7-0.4,1.5-0.6,2.4-0.6c1,0,1.9,0.2,2.7,0.7
		c0.8,0.5,1.4,1.3,1.8,2.2c0.4-0.9,1-1.7,1.9-2.2c0.8-0.5,1.8-0.7,2.8-0.7c0.9,0,1.7,0.1,2.5,0.5c0.6,0.3,1.1,0.8,1.5,1.4
		c0.4,0.6,0.6,1.3,0.7,2c0.1,0.8,0.2,1.6,0.2,2.5v10h-1.5v-10.2c0-0.6,0-1.2-0.1-1.8c-0.1-0.5-0.2-1-0.5-1.5c-0.2-0.4-0.6-0.8-1-1
		c-0.6-0.3-1.2-0.4-1.8-0.4c-1.4-0.1-2.6,0.6-3.3,1.8c-0.3,0.6-0.5,1.2-0.6,1.8c-0.1,0.7-0.2,1.4-0.2,2.1v9.2h-1.6v-9.9
		c0-0.6,0-1.2-0.1-1.8c-0.1-0.6-0.2-1.1-0.5-1.6c-0.2-0.5-0.6-0.9-1.1-1.1c-0.6-0.3-1.2-0.5-1.9-0.5c-0.7,0-1.4,0.2-2,0.6
		c-0.5,0.4-0.9,0.9-1.2,1.5c-0.3,0.6-0.5,1.3-0.6,2c-0.1,0.7-0.2,1.4-0.2,2v8.8h-1.5v-15.9h1.5L306.8,232.6z"/>
	
		<linearGradient id="SVGID_15_" gradientUnits="userSpaceOnUse" x1="334.3405" y1="347.4081" x2="349.9025" y2="347.4081" gradientTransform="matrix(1 0 0 -1 0 586)">
		<stop  offset="0" style="stop-color:#BEEB00"/>
		<stop  offset="0.23" style="stop-color:#58BF00"/>
		<stop  offset="0.42" style="stop-color:#58BF00"/>
		<stop  offset="0.61" style="stop-color:#29B800"/>
		<stop  offset="0.78" style="stop-color:#00AE1D"/>
		<stop  offset="0.99" style="stop-color:#00A62C"/>
	</linearGradient>
	<path class="st8" d="M349.9,246.6h-1.6v-2.9h-0.1c-0.3,0.5-0.7,1-1.1,1.4c-0.4,0.4-0.9,0.7-1.5,1c-0.5,0.3-1.1,0.5-1.7,0.6
		c-0.6,0.1-1.2,0.2-1.8,0.2c-1.1,0-2.2-0.2-3.3-0.7c-0.9-0.4-1.8-1-2.5-1.8c-0.7-0.8-1.2-1.7-1.6-2.7c-0.4-1.1-0.6-2.2-0.6-3.3
		c0-1.1,0.2-2.2,0.6-3.3c0.3-1,0.9-1.8,1.6-2.6c0.7-0.7,1.5-1.3,2.4-1.7c1-0.4,2.1-0.6,3.2-0.6c1.2,0,2.4,0.3,3.5,0.8
		c1.1,0.5,2,1.3,2.6,2.3h0.1v-2.7h1.6L349.9,246.6z M342.1,231.7c-0.9,0-1.7,0.2-2.5,0.6c-0.7,0.4-1.4,0.9-2,1.5
		c-0.5,0.6-1,1.4-1.3,2.2c-0.3,0.8-0.4,1.6-0.5,2.5c0,0.9,0.2,1.8,0.5,2.6c0.3,0.8,0.7,1.6,1.3,2.2c0.5,0.6,1.2,1.2,2,1.5
		c0.8,0.4,1.7,0.6,2.6,0.6c0.9,0,1.9-0.2,2.7-0.6c0.8-0.4,1.4-0.9,2-1.6c0.5-0.7,0.9-1.4,1.2-2.3c0.3-0.9,0.4-1.8,0.4-2.7
		c0-0.9-0.1-1.8-0.5-2.6c-0.3-0.8-0.7-1.5-1.3-2.1c-0.6-0.6-1.3-1.1-2-1.4C343.9,231.9,343,231.7,342.1,231.7z"/>
	
		<linearGradient id="SVGID_16_" gradientUnits="userSpaceOnUse" x1="360.8748" y1="347.5782" x2="367.6357" y2="347.5782" gradientTransform="matrix(1 0 0 -1 0 586)">
		<stop  offset="0" style="stop-color:#BEEB00"/>
		<stop  offset="0.23" style="stop-color:#58BF00"/>
		<stop  offset="0.42" style="stop-color:#58BF00"/>
		<stop  offset="0.61" style="stop-color:#29B800"/>
		<stop  offset="0.78" style="stop-color:#00AE1D"/>
		<stop  offset="0.99" style="stop-color:#00A62C"/>
	</linearGradient>
	<path class="st9" d="M362.4,232.7L362.4,232.7c0.4-0.7,0.8-1.3,1.4-1.8c0.6-0.5,1.4-0.7,2.1-0.7c0.3,0,0.6,0,0.9,0.1
		c0.3,0.1,0.5,0.2,0.8,0.3l-0.8,1.4c-0.2-0.1-0.3-0.2-0.5-0.2c-0.2,0-0.4-0.1-0.6-0.1c-0.7-0.1-1.5,0.2-2,0.7
		c-0.5,0.5-0.8,1.1-1,1.8c-0.2,0.7-0.3,1.5-0.3,2.2c0,0.8,0,1.4,0,2v8.1h-1.6v-15.9h1.6L362.4,232.7z"/>
	
		<linearGradient id="SVGID_17_" gradientUnits="userSpaceOnUse" x1="375.2208" y1="350.2503" x2="381.3285" y2="350.2503" gradientTransform="matrix(1 0 0 -1 0 586)">
		<stop  offset="0" style="stop-color:#BEEB00"/>
		<stop  offset="0.23" style="stop-color:#58BF00"/>
		<stop  offset="0.42" style="stop-color:#58BF00"/>
		<stop  offset="0.61" style="stop-color:#29B800"/>
		<stop  offset="0.78" style="stop-color:#00AE1D"/>
		<stop  offset="0.99" style="stop-color:#00A62C"/>
	</linearGradient>
	<path class="st10" d="M378.5,246.6H377v-14.5h-1.8v-1.4h1.8v-5.7h1.6v5.7h2.8v1.4h-2.8V246.6z"/>
	
		<linearGradient id="SVGID_18_" gradientUnits="userSpaceOnUse" x1="404.4802" y1="347.392" x2="419.8623" y2="347.392" gradientTransform="matrix(1 0 0 -1 0 586)">
		<stop  offset="0" style="stop-color:#BEEB00"/>
		<stop  offset="0.23" style="stop-color:#58BF00"/>
		<stop  offset="0.42" style="stop-color:#58BF00"/>
		<stop  offset="0.61" style="stop-color:#29B800"/>
		<stop  offset="0.78" style="stop-color:#00AE1D"/>
		<stop  offset="0.99" style="stop-color:#00A62C"/>
	</linearGradient>
	<path class="st11" d="M406,238.8c0,0.9,0.1,1.9,0.5,2.8c0.3,0.8,0.7,1.5,1.3,2.1c0.6,0.6,1.3,1,2.1,1.4c0.8,0.3,1.7,0.5,2.6,0.5
		c1.2,0,2.3-0.3,3.3-1c1-0.7,1.8-1.6,2.3-2.6l1.3,0.8c-0.7,1.3-1.7,2.4-2.9,3.2c-1.3,0.8-2.7,1.1-4.2,1.1c-1.1,0-2.2-0.2-3.2-0.7
		c-0.9-0.4-1.8-1-2.5-1.8c-0.7-0.8-1.2-1.7-1.6-2.7c-0.4-1-0.5-2.1-0.5-3.2c0-1.1,0.2-2.1,0.5-3.2c0.3-1,0.9-1.9,1.6-2.6
		c0.7-0.8,1.5-1.4,2.4-1.8c1-0.5,2.1-0.7,3.2-0.7c1.1,0,2.2,0.2,3.2,0.7c0.9,0.4,1.8,1,2.4,1.8c0.7,0.8,1.2,1.7,1.5,2.7
		c0.4,1,0.5,2.1,0.5,3.3H406z M418.3,237.3c-0.2-1.5-0.9-2.8-2-3.9c-0.5-0.5-1.2-0.9-1.8-1.2c-0.7-0.3-1.5-0.5-2.3-0.5
		c-0.8,0-1.6,0.2-2.3,0.5c-0.7,0.3-1.4,0.7-1.9,1.2c-0.5,0.5-1,1.1-1.4,1.8c-0.4,0.7-0.6,1.4-0.6,2.1H418.3z"/>
	
		<linearGradient id="SVGID_19_" gradientUnits="userSpaceOnUse" x1="427.731" y1="347.4037" x2="441.7031" y2="347.4037" gradientTransform="matrix(1 0 0 -1 0 586)">
		<stop  offset="0" style="stop-color:#BEEB00"/>
		<stop  offset="0.23" style="stop-color:#58BF00"/>
		<stop  offset="0.42" style="stop-color:#58BF00"/>
		<stop  offset="0.61" style="stop-color:#29B800"/>
		<stop  offset="0.78" style="stop-color:#00AE1D"/>
		<stop  offset="0.99" style="stop-color:#00A62C"/>
	</linearGradient>
	<path class="st12" d="M441.5,234.3c-0.7-0.8-1.6-1.4-2.5-1.9c-1-0.5-2-0.7-3.1-0.7c-0.9,0-1.8,0.2-2.6,0.5
		c-0.8,0.4-1.5,0.9-2.1,1.5c-0.6,0.6-1.1,1.4-1.4,2.2c-0.3,0.8-0.5,1.7-0.5,2.6c0,1.8,0.7,3.5,1.9,4.8c0.6,0.6,1.3,1.1,2.1,1.5
		c0.8,0.4,1.7,0.6,2.6,0.6c1.1,0,2.2-0.3,3.2-0.8c1-0.5,1.9-1.2,2.6-2.1v2.1c-0.8,0.7-1.7,1.3-2.7,1.6c-1,0.4-2,0.6-3.1,0.6
		c-2.2,0-4.3-0.9-5.9-2.4c-0.7-0.8-1.3-1.7-1.7-2.6c-0.8-2.1-0.8-4.4,0-6.5c0.4-1,1-1.9,1.7-2.6c0.7-0.8,1.6-1.4,2.6-1.8
		c1-0.4,2.1-0.7,3.3-0.6c1,0,2,0.2,3,0.5c0.9,0.3,1.8,0.8,2.6,1.5L441.5,234.3z"/>
	
		<linearGradient id="SVGID_20_" gradientUnits="userSpaceOnUse" x1="449.8465" y1="347.4038" x2="466.5077" y2="347.4038" gradientTransform="matrix(1 0 0 -1 0 586)">
		<stop  offset="0" style="stop-color:#BEEB00"/>
		<stop  offset="0.23" style="stop-color:#58BF00"/>
		<stop  offset="0.42" style="stop-color:#58BF00"/>
		<stop  offset="0.61" style="stop-color:#29B800"/>
		<stop  offset="0.78" style="stop-color:#00AE1D"/>
		<stop  offset="0.99" style="stop-color:#00A62C"/>
	</linearGradient>
	<path class="st13" d="M458.1,230.3c1.1,0,2.2,0.2,3.3,0.6c2,0.8,3.6,2.4,4.4,4.4c0.9,2.1,0.9,4.5,0,6.6c-0.8,2-2.4,3.6-4.4,4.4
		c-1,0.4-2.2,0.6-3.3,0.6c-1.1,0-2.2-0.2-3.2-0.7c-1-0.4-1.9-1-2.6-1.8c-0.7-0.8-1.3-1.7-1.8-2.6c-0.4-1-0.7-2.1-0.7-3.2
		c0-2.2,0.8-4.3,2.4-5.9c0.8-0.8,1.6-1.4,2.6-1.8C455.9,230.5,457,230.3,458.1,230.3z M458,231.7c-1.8,0-3.5,0.7-4.7,2.1
		c-0.6,0.6-1.1,1.4-1.4,2.2c-0.3,0.8-0.5,1.7-0.5,2.6c0,0.9,0.2,1.8,0.5,2.6c0.3,0.8,0.8,1.6,1.4,2.2c0.6,0.6,1.3,1.1,2.1,1.5
		c0.8,0.4,1.7,0.6,2.6,0.5c0.9,0,1.9-0.2,2.7-0.5c0.8-0.3,1.6-0.8,2.2-1.4c0.6-0.6,1.1-1.4,1.5-2.2c0.4-0.9,0.5-1.8,0.5-2.7
		c0-1.9-0.7-3.6-2-5c-0.6-0.6-1.4-1.1-2.2-1.4C459.9,231.9,459,231.7,458,231.7L458,231.7z"/>
	
		<linearGradient id="SVGID_21_" gradientUnits="userSpaceOnUse" x1="475.9263" y1="347.5658" x2="487.5208" y2="347.5658" gradientTransform="matrix(1 0 0 -1 0 586)">
		<stop  offset="0" style="stop-color:#BEEB00"/>
		<stop  offset="0.23" style="stop-color:#58BF00"/>
		<stop  offset="0.42" style="stop-color:#58BF00"/>
		<stop  offset="0.61" style="stop-color:#29B800"/>
		<stop  offset="0.78" style="stop-color:#00AE1D"/>
		<stop  offset="0.99" style="stop-color:#00A62C"/>
	</linearGradient>
	<path class="st14" d="M477.5,233.1L477.5,233.1c1-1.8,2.8-2.9,4.8-2.8c0.9,0,1.7,0.1,2.6,0.5c0.6,0.3,1.2,0.8,1.6,1.3
		c0.4,0.6,0.7,1.3,0.8,2.1c0.2,0.9,0.3,1.8,0.2,2.8v9.6H486V237c0-0.7,0-1.3-0.1-2c-0.1-0.6-0.2-1.1-0.5-1.7
		c-0.3-0.5-0.7-0.9-1.2-1.1c-0.6-0.3-1.4-0.5-2.1-0.4c-1.6-0.1-3.2,0.8-3.8,2.3c-0.3,0.7-0.6,1.5-0.7,2.3c-0.1,0.8-0.2,1.6-0.2,2.5
		v7.9h-1.6v-15.9h1.6L477.5,233.1z"/>
	
		<linearGradient id="SVGID_22_" gradientUnits="userSpaceOnUse" x1="496.9383" y1="347.4039" x2="513.5994" y2="347.4039" gradientTransform="matrix(1 0 0 -1 0 586)">
		<stop  offset="0" style="stop-color:#BEEB00"/>
		<stop  offset="0.23" style="stop-color:#58BF00"/>
		<stop  offset="0.42" style="stop-color:#58BF00"/>
		<stop  offset="0.61" style="stop-color:#29B800"/>
		<stop  offset="0.78" style="stop-color:#00AE1D"/>
		<stop  offset="0.99" style="stop-color:#00A62C"/>
	</linearGradient>
	<path class="st15" d="M505.2,230.3c1.1,0,2.2,0.2,3.3,0.6c1,0.4,1.9,1,2.7,1.7c0.8,0.8,1.4,1.7,1.8,2.6c0.9,2.1,0.9,4.5,0,6.6
		c-0.4,1-1,1.9-1.8,2.6c-0.8,0.7-1.7,1.3-2.7,1.7c-1,0.4-2.2,0.6-3.3,0.6c-1.1,0-2.2-0.2-3.2-0.7c-1-0.4-1.9-1-2.6-1.8
		c-0.8-0.8-1.4-1.7-1.8-2.6c-0.4-1-0.7-2.1-0.7-3.2c0-2.2,0.8-4.3,2.4-5.9c0.8-0.8,1.7-1.4,2.6-1.8
		C503,230.5,504.1,230.3,505.2,230.3z M505.1,231.7c-1.8,0-3.5,0.7-4.7,2.1c-0.6,0.6-1.1,1.4-1.4,2.2c-0.3,0.8-0.5,1.7-0.5,2.6
		c0,0.9,0.2,1.8,0.5,2.6c0.3,0.8,0.8,1.6,1.4,2.2c0.6,0.6,1.3,1.1,2.1,1.5c0.8,0.4,1.7,0.6,2.6,0.5c0.9,0,1.8-0.2,2.7-0.5
		c0.8-0.3,1.6-0.8,2.2-1.4c0.6-0.6,1.1-1.4,1.5-2.2c0.4-0.9,0.5-1.8,0.5-2.7c0-0.9-0.2-1.9-0.5-2.7c-0.3-0.8-0.8-1.6-1.5-2.2
		c-0.6-0.6-1.4-1.1-2.2-1.4C507,231.9,506,231.7,505.1,231.7L505.1,231.7z"/>
	
		<linearGradient id="SVGID_23_" gradientUnits="userSpaceOnUse" x1="523.0267" y1="347.5771" x2="542.715" y2="347.5771" gradientTransform="matrix(1 0 0 -1 0 586)">
		<stop  offset="0" style="stop-color:#BEEB00"/>
		<stop  offset="0.23" style="stop-color:#58BF00"/>
		<stop  offset="0.42" style="stop-color:#58BF00"/>
		<stop  offset="0.61" style="stop-color:#29B800"/>
		<stop  offset="0.78" style="stop-color:#00AE1D"/>
		<stop  offset="0.99" style="stop-color:#00A62C"/>
	</linearGradient>
	<path class="st16" d="M524.6,232.6L524.6,232.6c0.4-0.7,1-1.3,1.7-1.7c0.7-0.4,1.5-0.6,2.4-0.6c1,0,1.9,0.2,2.7,0.7
		c0.8,0.5,1.4,1.3,1.8,2.2c0.4-0.9,1-1.7,1.9-2.2c0.8-0.5,1.8-0.7,2.8-0.7c0.9,0,1.7,0.1,2.5,0.5c0.6,0.3,1.1,0.8,1.5,1.4
		c0.4,0.6,0.6,1.3,0.7,2c0.1,0.8,0.2,1.6,0.2,2.5v10h-1.6v-10.2c0-0.6,0-1.2-0.1-1.8c-0.1-0.5-0.2-1-0.5-1.5c-0.2-0.4-0.6-0.8-1-1
		c-0.6-0.3-1.2-0.4-1.8-0.4c-1.4-0.1-2.6,0.6-3.3,1.8c-0.3,0.6-0.5,1.2-0.6,1.8c-0.1,0.7-0.2,1.4-0.2,2.1v9.2h-1.5v-9.8
		c0-0.6,0-1.2-0.1-1.8c-0.1-0.6-0.2-1.1-0.5-1.6c-0.3-0.5-0.6-0.9-1.1-1.1c-0.6-0.3-1.2-0.5-1.9-0.5c-0.7,0-1.4,0.2-2,0.6
		c-0.5,0.4-0.9,0.9-1.2,1.5c-0.3,0.6-0.5,1.3-0.6,2c-0.1,0.7-0.2,1.4-0.2,2v8.8H523v-15.9h1.6L524.6,232.6z"/>
	
		<linearGradient id="SVGID_24_" gradientUnits="userSpaceOnUse" x1="550.7908" y1="342.7373" x2="566.9024" y2="342.7373" gradientTransform="matrix(1 0 0 -1 0 586)">
		<stop  offset="0" style="stop-color:#BEEB00"/>
		<stop  offset="0.23" style="stop-color:#58BF00"/>
		<stop  offset="0.42" style="stop-color:#58BF00"/>
		<stop  offset="0.61" style="stop-color:#29B800"/>
		<stop  offset="0.78" style="stop-color:#00AE1D"/>
		<stop  offset="0.99" style="stop-color:#00A62C"/>
	</linearGradient>
	<path class="st17" d="M550.8,230.7h1.6l6.8,14.4l6.1-14.4h1.6l-10.7,25.2h-1.6l3.8-9L550.8,230.7z"/>
	
		<linearGradient id="SVGID_25_" gradientUnits="userSpaceOnUse" x1="11.9875" y1="344.7359" x2="523.1941" y2="632.6547" gradientTransform="matrix(1 0 0 -1 0 586)">
		<stop  offset="0" style="stop-color:#BEEB00"/>
		<stop  offset="0.23" style="stop-color:#58BF00"/>
		<stop  offset="0.42" style="stop-color:#58BF00"/>
		<stop  offset="0.61" style="stop-color:#29B800"/>
		<stop  offset="0.78" style="stop-color:#00AE1D"/>
		<stop  offset="0.99" style="stop-color:#00A62C"/>
	</linearGradient>
	<polygon class="st18" points="221.1,46.6 221.1,218.8 130.6,176.1 130.6,79.1 	"/>
	
		<linearGradient id="SVGID_26_" gradientUnits="userSpaceOnUse" x1="-16.0245" y1="394.4721" x2="495.182" y2="682.3954" gradientTransform="matrix(1 0 0 -1 0 586)">
		<stop  offset="0" style="stop-color:#BEEB00"/>
		<stop  offset="0.23" style="stop-color:#58BF00"/>
		<stop  offset="0.42" style="stop-color:#58BF00"/>
		<stop  offset="0.61" style="stop-color:#29B800"/>
		<stop  offset="0.78" style="stop-color:#00AE1D"/>
		<stop  offset="0.99" style="stop-color:#00A62C"/>
	</linearGradient>
	<polygon class="st19" points="0.9,222 89.3,263.7 89.3,92.3 0.9,50.6 	"/>
	
		<linearGradient id="SVGID_27_" gradientUnits="userSpaceOnUse" x1="-47.8575" y1="450.9894" x2="463.3491" y2="738.9127" gradientTransform="matrix(1 0 0 -1 0 586)">
		<stop  offset="0" style="stop-color:#BEEB00"/>
		<stop  offset="0.23" style="stop-color:#58BF00"/>
		<stop  offset="0.42" style="stop-color:#58BF00"/>
		<stop  offset="0.61" style="stop-color:#29B800"/>
		<stop  offset="0.78" style="stop-color:#00AE1D"/>
		<stop  offset="0.99" style="stop-color:#00A62C"/>
	</linearGradient>
	<polygon class="st20" points="217.5,43.3 219,42.8 219.8,42.5 132.6,1.4 131.8,1.6 129.5,2.5 128.4,2.8 4.4,47.4 91.6,88.5 
		128.4,75.3 130.6,74.5 	"/>
</g>
</svg>
