<?xml version="1.0" encoding="utf-8"?>
<!-- Generator: Adobe Illustrator 16.0.0, SVG Export Plug-In . SVG Version: 6.00 Build 0)  -->
<!DOCTYPE svg PUBLIC "-//W3C//DTD SVG 1.1//EN" "http://www.w3.org/Graphics/SVG/1.1/DTD/svg11.dtd">
<svg version="1.1" xmlns="http://www.w3.org/2000/svg" xmlns:xlink="http://www.w3.org/1999/xlink" x="0px" y="0px"
	 width="1164.841px" height="1060.901px" viewBox="0 0 1164.841 1060.901" enable-background="new 0 0 1164.841 1060.901"
	 xml:space="preserve">
<g id="BACKGROUND_1">
</g>
<g id="BACKGROUND_2">
	<g id="BACKGROUND_x5F_2">
	</g>
	<g opacity="0.1">
		<defs>
			<rect id="SVGID_7_" x="536.551" y="1326.142" opacity="0.1" width="1159.527" height="860.808"/>
		</defs>
		<clipPath id="SVGID_2_">
			<use xlink:href="#SVGID_7_"  overflow="visible"/>
		</clipPath>
		<g clip-path="url(#SVGID_2_)">
			<polygon fill="#B8BABC" points="2277.218,1003.389 641.116,2639.49 654.25,2652.621 2290.353,1016.518 			"/>
			
				<rect x="284.111" y="1793.995" transform="matrix(0.7071 -0.7071 0.7071 0.7071 -853.0505 1547.1201)" fill="#B8BABC" width="2313.802" height="18.574"/>
			<polygon fill="#B8BABC" points="2226.45,952.615 590.347,2588.717 603.479,2601.854 2239.589,965.745 			"/>
			<polygon fill="#B8BABC" points="2329.56,1055.72 693.449,2691.826 706.585,2704.959 2342.698,1068.85 			"/>
			<polygon fill="#B8BABC" points="2303.511,1029.668 667.408,2665.773 680.538,2678.908 2316.642,1042.807 			"/>
		</g>
		<g clip-path="url(#SVGID_2_)">
			<polygon fill="#B8BABC" points="2047.517,766.746 246.045,2568.219 259.18,2581.348 2060.653,779.875 			"/>
			
				<rect x="-145.209" y="1640.037" transform="matrix(0.7071 -0.7071 0.7071 0.7071 -835.6816 1281.1365)" fill="#B8BABC" width="2547.669" height="18.573"/>
			<polygon fill="#B8BABC" points="1996.751,715.972 195.278,2517.443 208.409,2530.582 2009.89,729.101 			"/>
			
				<rect x="-43.429" y="1741.817" transform="matrix(0.7071 -0.7071 0.7071 0.7071 -877.8396 1382.915)" fill="#B8BABC" width="2547.671" height="18.574"/>
			<polygon fill="#B8BABC" points="2099.86,819.077 298.379,2620.555 311.515,2633.684 2112.999,832.207 			"/>
			<polygon fill="#B8BABC" points="2073.81,793.025 272.336,2594.5 285.468,2607.637 2086.94,806.163 			"/>
			<polygon fill="#B8BABC" points="2198.153,925.922 396.691,2727.396 409.828,2740.525 2211.294,939.055 			"/>
			<polygon fill="#B8BABC" points="2173.446,901.198 371.971,2702.672 385.106,2715.801 2186.579,914.328 			"/>
			<polygon fill="#B8BABC" points="2147.384,875.158 345.925,2676.621 359.055,2689.754 2160.53,888.277 			"/>
		</g>
	</g>
	<g>
		<defs>
			<rect id="SVGID_13_" x="1" width="536.347" height="386.983"/>
		</defs>
		<clipPath id="SVGID_4_">
			<use xlink:href="#SVGID_13_"  overflow="visible"/>
		</clipPath>
		<g clip-path="url(#SVGID_4_)">
			
				<rect x="-208.126" y="182.967" transform="matrix(-0.7071 0.7071 -0.7071 -0.7071 346.4677 232.256)" fill="#254B9C" width="666.516" height="9.833"/>
			
				<rect x="-195.036" y="196.056" transform="matrix(-0.7071 0.7071 -0.7071 -0.7071 378.0695 245.3456)" fill="#254B9C" width="666.516" height="9.835"/>
			
				<rect x="-181.245" y="209.848" transform="matrix(-0.7071 0.7071 -0.7071 -0.7071 411.3646 259.1376)" fill="#254B9C" width="666.516" height="9.835"/>
			
				<rect x="-248.927" y="142.166" transform="matrix(-0.7071 0.7071 -0.7071 -0.7071 247.9667 191.4558)" fill="#FFFFFF" width="666.517" height="9.835"/>
			
				<rect x="-235.839" y="155.255" transform="matrix(-0.7071 0.7071 -0.7071 -0.7071 279.5654 204.5454)" fill="#254B9C" width="666.518" height="9.834"/>
			
				<rect x="-222.046" y="169.049" transform="matrix(-0.7071 0.7071 -0.7071 -0.7071 312.8639 218.339)" fill="#254B9C" width="666.516" height="9.835"/>
			
				<rect x="-289.03" y="99.829" transform="matrix(-0.7071 0.7071 -0.7071 -0.7071 149.5677 147.5387)" fill="#FFFFFF" width="666.514" height="9.834"/>
			
				<rect x="-275.944" y="112.918" transform="matrix(-0.7071 0.7071 -0.7071 -0.7071 181.1629 160.6299)" fill="#FFFFFF" width="666.516" height="9.833"/>
			
				<rect x="-262.147" y="126.709" transform="matrix(-0.7071 0.7071 -0.7071 -0.7071 214.4642 174.4176)" fill="#FFFFFF" width="666.511" height="9.834"/>
		</g>
		<g clip-path="url(#SVGID_4_)">
			
				<rect x="-332.025" y="59.068" transform="matrix(-0.7071 0.7071 -0.7071 -0.7071 47.3479 108.3567)" fill="#EB4039" width="666.514" height="9.833"/>
			<polygon fill="#EB4039" points="-217.852,316.202 253.446,-155.099 246.493,-162.05 -224.806,309.245 			"/>
			
				<rect x="-305.145" y="85.951" transform="matrix(-0.7071 0.7071 -0.7071 -0.7071 112.2456 135.2407)" fill="#EB4039" width="666.517" height="9.833"/>
			
				<rect x="-372.826" y="18.267" transform="matrix(-0.7071 0.7071 -0.7071 -0.7071 -51.1545 67.5579)" fill="#EB4039" width="666.515" height="9.836"/>
			
				<rect x="-359.738" y="31.358" transform="matrix(-0.7071 0.7071 -0.7071 -0.7071 -19.5544 80.6485)" fill="#EB4039" width="666.516" height="9.833"/>
			<polygon fill="#EB4039" points="-244.859,289.192 226.439,-182.108 219.485,-189.058 -251.812,282.237 			"/>
			
				<rect x="-412.928" y="-24.072" transform="matrix(-0.7071 0.7071 -0.7071 -0.7071 -149.5536 23.6414)" fill="#EB4039" width="666.511" height="9.837"/>
			
				<rect x="-399.842" y="-10.98" transform="matrix(-0.7071 0.7071 -0.7071 -0.7071 -117.9556 36.7318)" fill="#EB4039" width="666.514" height="9.834"/>
			
				<rect x="-386.048" y="2.812" transform="matrix(-0.7071 0.7071 -0.7071 -0.7071 -84.6563 50.5228)" fill="#EB4039" width="666.512" height="9.833"/>
		</g>
	</g>
</g>
<g id="DESIGN">
</g>
<g id="TYPE">
</g>
</svg>
