<?xml version="1.0" encoding="utf-8"?>
<!-- Generator: Adobe Illustrator 22.0.1, SVG Export Plug-In . SVG Version: 6.00 Build 0)  -->
<svg version="1.1" id="图层_1" xmlns="http://www.w3.org/2000/svg" xmlns:xlink="http://www.w3.org/1999/xlink" x="0px" y="0px"
	 viewBox="0 0 513.9 220.5" style="enable-background:new 0 0 513.9 220.5;" xml:space="preserve">
<style type="text/css">
	.st0{clip-path:url(#SVGID_2_);}
	.st1{fill:#FFFFFF;}
	.st2{clip-path:url(#SVGID_4_);}
	.st3{clip-path:url(#SVGID_6_);}
</style>
<title>NEO-LOGO</title>
<g id="图层_1_1_">
	<g>
		<defs>
			<polygon id="SVGID_1_" points="235.3,75.3 245.4,75.3 299.6,161.8 299.9,161.8 299.9,75.3 308.8,75.2 308.8,173.7 297.6,173.7 
				244.4,88.6 244.2,88.6 244.2,173.6 235.3,173.7 			"/>
		</defs>
		<use xlink:href="#SVGID_1_"  style="overflow:visible;fill:#FFFFFF;"/>
		<clipPath id="SVGID_2_">
			<use xlink:href="#SVGID_1_"  style="overflow:visible;"/>
		</clipPath>
		<g class="st0">
			<rect x="-203.4" y="-11.3" class="st1" width="806.7" height="301.2"/>
		</g>
	</g>
	<g>
		<defs>
			<polygon id="SVGID_3_" points="337.8,173.7 337.8,75.3 396.2,75.3 392.5,83.5 346.6,83.5 346.6,118.8 394.3,118.8 390.6,126.9 
				346.6,126.9 346.6,165.5 398.3,165.5 394.6,173.7 			"/>
		</defs>
		<use xlink:href="#SVGID_3_"  style="overflow:visible;fill:#FFFFFF;"/>
		<clipPath id="SVGID_4_">
			<use xlink:href="#SVGID_3_"  style="overflow:visible;"/>
		</clipPath>
		<g class="st2">
			<rect x="-203.4" y="-11.3" class="st1" width="806.7" height="301.2"/>
		</g>
	</g>
	<g>
		<defs>
			<path id="SVGID_5_" d="M506.7,124.5c0,7.6-1,14.6-2.9,20.9c-1.9,6.3-4.7,11.7-8.4,16.2c-3.7,4.5-8.4,8.1-13.8,10.4
				c-5.4,2.5-11.7,3.7-18.8,3.7c-7.1,0-13.4-1.2-18.8-3.7c-5.3-2.4-10-5.9-13.8-10.4c-3.7-4.5-6.5-9.9-8.5-16.2
				c-1.9-6.3-2.9-13.3-2.9-20.9c0-7.6,1-14.6,2.9-20.9c1.9-6.3,4.7-11.7,8.5-16.2c3.7-4.5,8.4-8.1,13.8-10.4
				c5.5-2.4,11.7-3.7,18.8-3.7s13.4,1.2,18.8,3.7c5.3,2.4,10,5.9,13.8,10.4c3.7,4.5,6.5,9.9,8.4,16.2
				C505.8,109.9,506.8,116.9,506.7,124.5z M428.5,124.5c0,5.3,0.6,10.6,1.9,15.8c1.2,4.9,3.2,9.6,6.1,13.8c2.7,4,6.4,7.4,10.6,9.7
				c4.3,2.5,9.6,3.7,15.7,3.7c6.1,0,11.3-1.2,15.7-3.7c4.3-2.4,7.9-5.7,10.7-9.7c2.8-4.2,4.9-8.9,6.1-13.8c2.5-10.4,2.5-21.2,0-31.6
				c-1.2-4.9-3.2-9.6-6.1-13.8c-2.8-4-6.4-7.4-10.7-9.7c-4.4-2.5-9.6-3.7-15.7-3.7c-6.2,0-11.4,1.2-15.7,3.7
				c-4.2,2.4-7.9,5.7-10.6,9.7c-2.8,4.2-4.9,8.9-6.1,13.8C429.2,113.9,428.5,119.2,428.5,124.5L428.5,124.5z"/>
		</defs>
		<use xlink:href="#SVGID_5_"  style="overflow:visible;fill:#FFFFFF;"/>
		<clipPath id="SVGID_6_">
			<use xlink:href="#SVGID_5_"  style="overflow:visible;"/>
		</clipPath>
		<g class="st3">
			<rect x="-203.4" y="-11.3" class="st1" width="806.7" height="301.2"/>
		</g>
	</g>
	<path class="st1" d="M241.6,192.5c-0.2-0.4-0.5-0.8-0.9-1.1c-0.4-0.3-0.9-0.4-1.4-0.4c-0.3,0-0.6,0.1-0.8,0.2
		c-0.3,0.1-0.5,0.3-0.7,0.4c-0.2,0.2-0.4,0.4-0.5,0.7c-0.1,0.2-0.2,0.5-0.2,0.8c0,0.5,0.1,0.9,0.5,1.2c0.3,0.3,0.7,0.6,1.2,0.7
		c0.5,0.2,1,0.4,1.5,0.6c0.5,0.2,1.1,0.4,1.5,0.7c0.5,0.3,0.9,0.7,1.2,1.1c0.3,0.6,0.5,1.2,0.5,1.9c0,0.6-0.1,1.1-0.3,1.7
		c-0.2,0.5-0.5,0.9-0.9,1.3c-0.4,0.4-0.9,0.6-1.3,0.8c-0.5,0.2-1.1,0.3-1.6,0.3c-1,0-2.1-0.3-2.9-0.9c-0.8-0.6-1.4-1.5-1.6-2.5
		l1.2-0.4c0.2,0.7,0.6,1.4,1.2,1.9c0.6,0.5,1.3,0.8,2.1,0.7c1.6,0,2.9-1.2,3-2.8c0,0,0-0.1,0-0.1c0-0.4-0.1-0.7-0.2-1
		c-0.1-0.3-0.3-0.5-0.6-0.7c-0.3-0.2-0.5-0.4-0.8-0.5c-0.3-0.1-0.6-0.3-1-0.4c-0.5-0.2-0.9-0.4-1.4-0.5c-0.4-0.2-0.9-0.4-1.2-0.7
		c-0.4-0.3-0.7-0.6-0.9-1c-0.2-0.4-0.4-0.9-0.3-1.4c0-0.5,0.1-0.9,0.3-1.3c0.4-0.8,1.1-1.4,1.9-1.7c0.4-0.2,0.9-0.2,1.4-0.2
		c0.7,0,1.4,0.2,2,0.6c0.6,0.4,1.1,0.9,1.4,1.5L241.6,192.5z"/>
	<path class="st1" d="M252.7,191.7L252.7,191.7c0.4-0.6,0.8-1.1,1.4-1.4c0.6-0.3,1.3-0.5,1.9-0.5c0.8,0,1.6,0.2,2.2,0.6
		c0.7,0.4,1.2,1.1,1.5,1.8c0.3-0.7,0.9-1.4,1.5-1.8c0.7-0.4,1.5-0.6,2.3-0.6c0.7,0,1.4,0.1,2.1,0.4c0.5,0.3,0.9,0.6,1.2,1.1
		c0.3,0.5,0.5,1.1,0.6,1.6c0.1,0.7,0.2,1.3,0.2,2v8.2h-1.3v-8.4c0-0.5,0-1-0.1-1.4c0-0.4-0.2-0.8-0.4-1.2c-0.2-0.4-0.5-0.6-0.9-0.8
		c-0.5-0.2-1-0.3-1.5-0.3c-1.1-0.1-2.2,0.5-2.7,1.5c-0.3,0.5-0.4,1-0.5,1.5c-0.1,0.6-0.2,1.1-0.2,1.7v7.6h-1.3v-8.1
		c0-0.5,0-1-0.1-1.5c-0.1-0.5-0.2-0.9-0.4-1.3c-0.2-0.4-0.5-0.7-0.9-0.9c-0.5-0.3-1-0.4-1.5-0.4c-0.6,0-1.2,0.1-1.7,0.5
		c-0.4,0.3-0.8,0.7-1,1.2c-0.2,0.5-0.4,1.1-0.5,1.6c-0.1,0.6-0.1,1.1-0.1,1.7v7.2h-1.3v-13.1h1.3L252.7,191.7z"/>
	<path class="st1" d="M288.2,203.2h-1.3v-2.3h-0.1c-0.3,0.4-0.6,0.8-0.9,1.1c-0.4,0.3-0.8,0.6-1.2,0.8c-0.4,0.2-0.9,0.4-1.4,0.5
		c-0.5,0.1-1,0.2-1.4,0.2c-0.9,0-1.8-0.2-2.7-0.5c-0.8-0.3-1.5-0.9-2-1.5c-0.6-0.6-1-1.4-1.3-2.2c-0.3-0.9-0.5-1.8-0.5-2.7
		c0-0.9,0.1-1.8,0.5-2.7c0.3-0.8,0.7-1.5,1.3-2.1c0.6-0.6,1.2-1.1,2-1.4c0.8-0.4,1.8-0.5,2.7-0.5c1,0,2,0.2,2.9,0.7
		c0.9,0.4,1.6,1.1,2.2,1.9h0.1v-2.2h1.3L288.2,203.2z M281.8,191c-0.7,0-1.4,0.2-2.1,0.5c-0.6,0.3-1.2,0.7-1.6,1.2
		c-0.4,0.5-0.8,1.1-1,1.8c-0.2,0.7-0.4,1.4-0.4,2.1c0,0.7,0.1,1.5,0.4,2.2c0.2,0.7,0.6,1.3,1,1.8c0.5,0.5,1,1,1.6,1.3
		c0.7,0.3,1.4,0.5,2.1,0.5c0.8,0,1.5-0.1,2.2-0.5c0.6-0.3,1.2-0.7,1.6-1.3c0.4-0.6,0.8-1.2,1-1.9c0.2-0.7,0.3-1.5,0.3-2.3
		c0-0.7-0.1-1.4-0.4-2.1c-0.2-0.6-0.6-1.2-1.1-1.7c-0.5-0.5-1-0.9-1.7-1.1C283.3,191.2,282.5,191,281.8,191z"/>
	<path class="st1" d="M298.5,191.8L298.5,191.8c0.3-0.6,0.7-1.1,1.1-1.4c0.5-0.4,1.1-0.6,1.7-0.5c0.2,0,0.5,0,0.7,0.1
		c0.2,0.1,0.5,0.1,0.7,0.2l-0.7,1.1c-0.1-0.1-0.3-0.2-0.4-0.2c-0.2,0-0.3-0.1-0.5-0.1c-0.6,0-1.2,0.2-1.6,0.6
		c-0.4,0.4-0.6,0.9-0.8,1.4c-0.2,0.6-0.3,1.2-0.3,1.8c0,0.6,0,1.2,0,1.7v6.7h-1.3v-13.1h1.3L298.5,191.8z"/>
	<path class="st1" d="M311.8,203.2h-1.3v-11.9h-1.4v-1.2h1.4v-4.7h1.3v4.7h2.3v1.2h-2.3V203.2z"/>
	<path class="st1" d="M334.4,196.8c0,0.8,0.1,1.5,0.4,2.3c0.2,0.7,0.6,1.3,1.1,1.8c0.5,0.5,1.1,0.9,1.7,1.1c0.7,0.3,1.4,0.4,2.1,0.4
		c1,0,1.9-0.3,2.7-0.8c0.8-0.6,1.5-1.3,1.9-2.2l1.1,0.6c-0.6,1.1-1.4,2-2.4,2.6c-1,0.6-2.2,0.9-3.5,0.9c-0.9,0-1.8-0.2-2.6-0.6
		c-0.8-0.4-1.5-0.9-2-1.5c-0.6-0.6-1-1.4-1.3-2.2c-0.3-0.8-0.4-1.7-0.4-2.6c0-0.9,0.1-1.8,0.5-2.6c0.3-0.8,0.7-1.5,1.3-2.2
		c0.6-0.6,1.2-1.1,2-1.5c0.8-0.4,1.7-0.6,2.6-0.6c0.9,0,1.8,0.2,2.7,0.6c0.8,0.4,1.4,0.9,2,1.5c0.5,0.7,1,1.4,1.2,2.2
		c0.3,0.9,0.4,1.8,0.4,2.7H334.4z M344.5,195.6c-0.2-1.2-0.7-2.3-1.6-3.2c-0.4-0.4-1-0.8-1.5-1c-0.6-0.3-1.2-0.4-1.9-0.4
		c-0.6,0-1.3,0.1-1.9,0.4c-0.6,0.2-1.1,0.6-1.6,1c-0.4,0.4-0.8,0.9-1.1,1.4c-0.3,0.5-0.5,1.1-0.5,1.8H344.5z"/>
	<path class="st1" d="M363.6,193.1c-0.6-0.7-1.3-1.2-2.1-1.6c-0.8-0.4-1.7-0.6-2.6-0.6c-0.7,0-1.5,0.1-2.2,0.5
		c-0.7,0.3-1.2,0.7-1.7,1.2c-0.5,0.5-0.9,1.1-1.1,1.8c-0.3,0.7-0.4,1.4-0.4,2.1c0,1.5,0.6,2.9,1.5,4c0.5,0.5,1.1,0.9,1.7,1.2
		c0.7,0.3,1.4,0.5,2.1,0.5c0.9,0,1.8-0.2,2.7-0.6c0.8-0.4,1.6-1,2.2-1.7v1.7c-0.7,0.6-1.4,1-2.2,1.3c-0.8,0.3-1.7,0.5-2.6,0.5
		c-1.8,0-3.6-0.7-4.8-2c-0.6-0.6-1.1-1.4-1.4-2.2c-0.7-1.7-0.7-3.6,0-5.4c0.3-0.8,0.8-1.5,1.4-2.2c0.6-0.6,1.3-1.1,2.1-1.4
		c0.8-0.4,1.8-0.5,2.7-0.5c0.8,0,1.6,0.1,2.4,0.4c0.8,0.3,1.5,0.7,2.1,1.2L363.6,193.1z"/>
	<path class="st1" d="M377.3,189.8c0.9,0,1.9,0.2,2.7,0.5c1.7,0.7,3,2,3.7,3.6c0.7,1.7,0.7,3.7,0,5.4c-0.7,1.6-2,2.9-3.7,3.6
		c-0.9,0.4-1.8,0.5-2.7,0.5c-0.9,0-1.8-0.2-2.7-0.5c-0.8-0.4-1.5-0.9-2.2-1.5c-0.6-0.6-1.1-1.4-1.5-2.2c-0.4-0.8-0.5-1.7-0.5-2.6
		c0-1.8,0.7-3.6,2-4.9c0.6-0.6,1.4-1.1,2.2-1.5C375.5,190,376.4,189.8,377.3,189.8z M377.2,191c-1.5,0-2.9,0.6-3.9,1.7
		c-0.5,0.5-0.9,1.1-1.1,1.8c-0.3,0.7-0.4,1.4-0.4,2.2c0,0.7,0.1,1.5,0.4,2.1c0.3,0.7,0.7,1.3,1.1,1.8c0.5,0.5,1.1,0.9,1.7,1.2
		c0.7,0.3,1.4,0.5,2.2,0.5c0.8,0,1.5-0.1,2.2-0.4c0.7-0.3,1.3-0.7,1.8-1.2c0.5-0.5,0.9-1.1,1.2-1.8c0.3-0.7,0.4-1.5,0.4-2.2
		c0-1.5-0.6-3-1.6-4.1c-0.5-0.5-1.1-0.9-1.8-1.2C378.8,191.1,378,191,377.2,191L377.2,191z"/>
	<path class="st1" d="M393.2,192.1L393.2,192.1c0.8-1.4,2.3-2.4,3.9-2.3c0.7,0,1.4,0.1,2.1,0.4c0.5,0.2,1,0.6,1.3,1.1
		c0.4,0.5,0.6,1.1,0.7,1.7c0.1,0.8,0.2,1.5,0.2,2.3v7.9h-1.3v-7.9c0-0.6,0-1.1-0.1-1.7c0-0.5-0.2-0.9-0.4-1.4
		c-0.2-0.4-0.6-0.7-1-0.9c-0.5-0.3-1.1-0.4-1.7-0.3c-1.3-0.1-2.6,0.7-3.2,1.9c-0.3,0.6-0.5,1.2-0.5,1.9c-0.1,0.7-0.1,1.3-0.1,2v6.5
		H392v-13.1h1.3L393.2,192.1z"/>
	<path class="st1" d="M416.1,189.8c0.9,0,1.9,0.2,2.7,0.5c0.8,0.3,1.6,0.8,2.2,1.4c0.6,0.6,1.1,1.4,1.5,2.2c0.7,1.7,0.7,3.7,0,5.4
		c-0.3,0.8-0.8,1.5-1.5,2.2c-0.6,0.6-1.4,1.1-2.2,1.4c-0.9,0.4-1.8,0.5-2.7,0.5c-0.9,0-1.8-0.2-2.7-0.5c-0.8-0.3-1.5-0.9-2.2-1.5
		c-0.6-0.6-1.1-1.4-1.5-2.2c-0.4-0.8-0.5-1.7-0.5-2.6c0-1.8,0.7-3.6,2-4.9c0.6-0.6,1.4-1.1,2.2-1.5
		C414.2,190,415.1,189.8,416.1,189.8z M416,191c-1.5,0-2.9,0.6-3.9,1.7c-0.5,0.5-0.9,1.1-1.1,1.8c-0.3,0.7-0.4,1.4-0.4,2.2
		c0,0.7,0.1,1.5,0.4,2.1c0.3,0.7,0.7,1.3,1.2,1.8c0.5,0.5,1.1,0.9,1.7,1.2c0.7,0.3,1.4,0.5,2.2,0.5c0.8,0,1.5-0.1,2.2-0.4
		c0.7-0.3,1.3-0.7,1.8-1.2c0.5-0.5,0.9-1.1,1.2-1.8c0.3-0.7,0.4-1.5,0.4-2.2c0-0.8-0.1-1.5-0.4-2.3c-0.3-0.7-0.7-1.3-1.2-1.8
		c-0.5-0.5-1.1-0.9-1.8-1.2C417.5,191.2,416.8,191,416,191L416,191z"/>
	<path class="st1" d="M432,191.7L432,191.7c0.4-0.6,0.8-1.1,1.4-1.4c0.6-0.3,1.3-0.5,1.9-0.5c0.8,0,1.6,0.2,2.2,0.6
		c0.7,0.4,1.2,1.1,1.5,1.8c0.3-0.7,0.9-1.4,1.5-1.8c0.7-0.4,1.5-0.6,2.3-0.6c0.7,0,1.4,0.1,2.1,0.4c0.5,0.3,0.9,0.6,1.2,1.1
		c0.3,0.5,0.5,1.1,0.6,1.6c0.1,0.7,0.2,1.3,0.2,2v8.2h-1.3v-8.4c0-0.5,0-1-0.1-1.4c0-0.4-0.2-0.8-0.4-1.2c-0.2-0.4-0.5-0.6-0.8-0.8
		c-0.5-0.2-1-0.3-1.5-0.3c-1.1-0.1-2.2,0.5-2.7,1.5c-0.3,0.5-0.4,1-0.5,1.5c-0.1,0.6-0.1,1.1-0.1,1.7v7.6h-1.3v-8.1
		c0-0.5,0-1-0.1-1.5c-0.1-0.5-0.2-0.9-0.4-1.3c-0.2-0.4-0.5-0.7-0.9-0.9c-0.5-0.3-1-0.4-1.5-0.4c-0.6,0-1.2,0.1-1.7,0.5
		c-0.4,0.3-0.8,0.7-1,1.2c-0.2,0.5-0.4,1.1-0.5,1.6c-0.1,0.6-0.1,1.1-0.1,1.7v7.2h-1.3v-13.1h1.3L432,191.7z"/>
	<path class="st1" d="M453.6,190.1h1.3l5.6,11.9l5-11.9h1.3l-8.8,20.8h-1.3l3.2-7.4L453.6,190.1z"/>
	<polygon class="st1" points="182.2,38.6 182.2,180.4 107.6,145.2 107.6,65.4 	"/>
	<polygon class="st1" points="0.9,183 73.7,217.3 73.7,76.2 0.9,41.9 	"/>
	<polygon class="st1" points="179.2,35.9 180.4,35.4 181.1,35.2 109.3,1.4 108.6,1.6 106.8,2.3 105.9,2.6 3.8,39.3 75.5,73.1 
		105.9,62.2 107.6,61.6 	"/>
</g>
</svg>
